
            <svg id="trend-chart" width="660" height="400" title="Stack Overflow Trends Chart" version="1.1" xmlns="http://www.w3.org/2000/svg"><g></g><g class="chart-area" transform="translate(100, 20)"><g transform="translate(0,300)" fill="none" font-size="10" font-family="sans-serif" text-anchor="middle"><path class="domain" stroke="#000" d="M0.5,6V0.5H410.5V6"></path><g class="tick" opacity="1" transform="translate(13.047844319678381,0)"><line stroke="#000" y2="6" x1="0.5" x2="0.5"></line><text fill="#000" y="9" x="0.5" dy="0.71em" style="font-size: 12px;">2009</text></g><g class="tick" opacity="1" transform="translate(44.16658002356692,0)"><line stroke="#000" y2="6" x1="0.5" x2="0.5"></line><text fill="#000" y="9" x="0.5" dy="0.71em" style="font-size: 12px;">2010</text></g><g class="tick" opacity="1" transform="translate(75.28531572745547,0)"><line stroke="#000" y2="6" x1="0.5" x2="0.5"></line><text fill="#000" y="9" x="0.5" dy="0.71em" style="font-size: 12px;">2011</text></g><g class="tick" opacity="1" transform="translate(106.404051431344,0)"><line stroke="#000" y2="6" x1="0.5" x2="0.5"></line><text fill="#000" y="9" x="0.5" dy="0.71em" style="font-size: 12px;">2012</text></g><g class="tick" opacity="1" transform="translate(137.6080439453802,0)"><line stroke="#000" y2="6" x1="0.5" x2="0.5"></line><text fill="#000" y="9" x="0.5" dy="0.71em" style="font-size: 12px;">2013</text></g><g class="tick" opacity="1" transform="translate(168.72677964926874,0)"><line stroke="#000" y2="6" x1="0.5" x2="0.5"></line><text fill="#000" y="9" x="0.5" dy="0.71em" style="font-size: 12px;">2014</text></g><g class="tick" opacity="1" transform="translate(199.84551535315725,0)"><line stroke="#000" y2="6" x1="0.5" x2="0.5"></line><text fill="#000" y="9" x="0.5" dy="0.71em" style="font-size: 12px;">2015</text></g><g class="tick" opacity="1" transform="translate(230.96425105704583,0)"><line stroke="#000" y2="6" x1="0.5" x2="0.5"></line><text fill="#000" y="9" x="0.5" dy="0.71em" style="font-size: 12px;">2016</text></g><g class="tick" opacity="1" transform="translate(262.16824357108203,0)"><line stroke="#000" y2="6" x1="0.5" x2="0.5"></line><text fill="#000" y="9" x="0.5" dy="0.71em" style="font-size: 12px;">2017</text></g><g class="tick" opacity="1" transform="translate(293.2869792749705,0)"><line stroke="#000" y2="6" x1="0.5" x2="0.5"></line><text fill="#000" y="9" x="0.5" dy="0.71em" style="font-size: 12px;">2018</text></g><g class="tick" opacity="1" transform="translate(324.40571497885907,0)"><line stroke="#000" y2="6" x1="0.5" x2="0.5"></line><text fill="#000" y="9" x="0.5" dy="0.71em" style="font-size: 12px;">2019</text></g><g class="tick" opacity="1" transform="translate(355.5244506827476,0)"><line stroke="#000" y2="6" x1="0.5" x2="0.5"></line><text fill="#000" y="9" x="0.5" dy="0.71em" style="font-size: 12px;">2020</text></g><g class="tick" opacity="1" transform="translate(386.7284431967838,0)"><line stroke="#000" y2="6" x1="0.5" x2="0.5"></line><text fill="#000" y="9" x="0.5" dy="0.71em" style="font-size: 12px;">2021</text></g></g><g class="grid-lines" transform="translate(0,300)" fill="none" font-size="10" font-family="sans-serif" text-anchor="middle"><path class="domain" stroke="#000" d="M0.5,-300V0.5H410.5V-300"></path><g class="tick" opacity="1" transform="translate(13.047844319678381,0)"><line stroke="#000" y2="-300" x1="0.5" x2="0.5" style="stroke: #ccc; fill: none;"></line></g><g class="tick" opacity="1" transform="translate(44.16658002356692,0)"><line stroke="#000" y2="-300" x1="0.5" x2="0.5" style="stroke: #ccc; fill: none;"></line></g><g class="tick" opacity="1" transform="translate(75.28531572745547,0)"><line stroke="#000" y2="-300" x1="0.5" x2="0.5" style="stroke: #ccc; fill: none;"></line></g><g class="tick" opacity="1" transform="translate(106.404051431344,0)"><line stroke="#000" y2="-300" x1="0.5" x2="0.5" style="stroke: #ccc; fill: none;"></line></g><g class="tick" opacity="1" transform="translate(137.6080439453802,0)"><line stroke="#000" y2="-300" x1="0.5" x2="0.5" style="stroke: #ccc; fill: none;"></line></g><g class="tick" opacity="1" transform="translate(168.72677964926874,0)"><line stroke="#000" y2="-300" x1="0.5" x2="0.5" style="stroke: #ccc; fill: none;"></line></g><g class="tick" opacity="1" transform="translate(199.84551535315725,0)"><line stroke="#000" y2="-300" x1="0.5" x2="0.5" style="stroke: #ccc; fill: none;"></line></g><g class="tick" opacity="1" transform="translate(230.96425105704583,0)"><line stroke="#000" y2="-300" x1="0.5" x2="0.5" style="stroke: #ccc; fill: none;"></line></g><g class="tick" opacity="1" transform="translate(262.16824357108203,0)"><line stroke="#000" y2="-300" x1="0.5" x2="0.5" style="stroke: #ccc; fill: none;"></line></g><g class="tick" opacity="1" transform="translate(293.2869792749705,0)"><line stroke="#000" y2="-300" x1="0.5" x2="0.5" style="stroke: #ccc; fill: none;"></line></g><g class="tick" opacity="1" transform="translate(324.40571497885907,0)"><line stroke="#000" y2="-300" x1="0.5" x2="0.5" style="stroke: #ccc; fill: none;"></line></g><g class="tick" opacity="1" transform="translate(355.5244506827476,0)"><line stroke="#000" y2="-300" x1="0.5" x2="0.5" style="stroke: #ccc; fill: none;"></line></g><g class="tick" opacity="1" transform="translate(386.7284431967838,0)"><line stroke="#000" y2="-300" x1="0.5" x2="0.5" style="stroke: #ccc; fill: none;"></line></g></g><text x="205" y="360" class="axis-label x-axis-label" style="text-anchor: middle; font-weight: bold;">Year</text><g fill="none" font-size="10" font-family="sans-serif" text-anchor="end"><path class="domain" stroke="#000" d="M-6,300.5H0.5V0.5H-6"></path><g class="tick" opacity="1" transform="translate(0,300)"><line stroke="#000" x2="-6" y1="0.5" y2="0.5"></line><text fill="#000" x="-9" y="0.5" dy="0.32em" style="font-size: 12px;">0.00%</text></g><g class="tick" opacity="1" transform="translate(0,264.70588235294116)"><line stroke="#000" x2="-6" y1="0.5" y2="0.5"></line><text fill="#000" x="-9" y="0.5" dy="0.32em" style="font-size: 12px;">2.00%</text></g><g class="tick" opacity="1" transform="translate(0,229.41176470588235)"><line stroke="#000" x2="-6" y1="0.5" y2="0.5"></line><text fill="#000" x="-9" y="0.5" dy="0.32em" style="font-size: 12px;">4.00%</text></g><g class="tick" opacity="1" transform="translate(0,194.11764705882354)"><line stroke="#000" x2="-6" y1="0.5" y2="0.5"></line><text fill="#000" x="-9" y="0.5" dy="0.32em" style="font-size: 12px;">6.00%</text></g><g class="tick" opacity="1" transform="translate(0,158.8235294117647)"><line stroke="#000" x2="-6" y1="0.5" y2="0.5"></line><text fill="#000" x="-9" y="0.5" dy="0.32em" style="font-size: 12px;">8.00%</text></g><g class="tick" opacity="1" transform="translate(0,123.52941176470588)"><line stroke="#000" x2="-6" y1="0.5" y2="0.5"></line><text fill="#000" x="-9" y="0.5" dy="0.32em" style="font-size: 12px;">10.00%</text></g><g class="tick" opacity="1" transform="translate(0,88.23529411764707)"><line stroke="#000" x2="-6" y1="0.5" y2="0.5"></line><text fill="#000" x="-9" y="0.5" dy="0.32em" style="font-size: 12px;">12.00%</text></g><g class="tick" opacity="1" transform="translate(0,52.9411764705882)"><line stroke="#000" x2="-6" y1="0.5" y2="0.5"></line><text fill="#000" x="-9" y="0.5" dy="0.32em" style="font-size: 12px;">14.00%</text></g><g class="tick" opacity="1" transform="translate(0,17.64705882352939)"><line stroke="#000" x2="-6" y1="0.5" y2="0.5"></line><text fill="#000" x="-9" y="0.5" dy="0.32em" style="font-size: 12px;">16.00%</text></g></g><g class="grid-lines" fill="none" font-size="10" font-family="sans-serif" text-anchor="end"><path class="domain" stroke="#000" d="M410,300.5H0.5V0.5H410"></path><g class="tick" opacity="1" transform="translate(0,300)"><line stroke="#000" x2="410" y1="0.5" y2="0.5" style="stroke: #ccc; fill: none;"></line></g><g class="tick" opacity="1" transform="translate(0,264.70588235294116)"><line stroke="#000" x2="410" y1="0.5" y2="0.5" style="stroke: #ccc; fill: none;"></line></g><g class="tick" opacity="1" transform="translate(0,229.41176470588235)"><line stroke="#000" x2="410" y1="0.5" y2="0.5" style="stroke: #ccc; fill: none;"></line></g><g class="tick" opacity="1" transform="translate(0,194.11764705882354)"><line stroke="#000" x2="410" y1="0.5" y2="0.5" style="stroke: #ccc; fill: none;"></line></g><g class="tick" opacity="1" transform="translate(0,158.8235294117647)"><line stroke="#000" x2="410" y1="0.5" y2="0.5" style="stroke: #ccc; fill: none;"></line></g><g class="tick" opacity="1" transform="translate(0,123.52941176470588)"><line stroke="#000" x2="410" y1="0.5" y2="0.5" style="stroke: #ccc; fill: none;"></line></g><g class="tick" opacity="1" transform="translate(0,88.23529411764707)"><line stroke="#000" x2="410" y1="0.5" y2="0.5" style="stroke: #ccc; fill: none;"></line></g><g class="tick" opacity="1" transform="translate(0,52.9411764705882)"><line stroke="#000" x2="410" y1="0.5" y2="0.5" style="stroke: #ccc; fill: none;"></line></g><g class="tick" opacity="1" transform="translate(0,17.64705882352939)"><line stroke="#000" x2="410" y1="0.5" y2="0.5" style="stroke: #ccc; fill: none;"></line></g></g><g class="lines"><path class="line" d="M2.642961114576835,299.2372137962647L5.20066541900603,300L7.843626533582865,299.85935236452355L10.404883205101545,299.8522640533941L13.047844319678381,299.1018165759882L15.690805434255218,299.08769297828826L18.07799611838913,299.65138169057644L20.717404865876482,298.99651847661175L23.275109170305676,299.8617651666706L25.91807028488251,299.6849414621294L28.47577458931171,297.1952131638L31.11873570388854,297.4407980354118L33.761696818465374,292.5526173772412L36.319401122894575,296.4221649333L38.96236223747141,295.6473891280588L41.52361890899009,296.2270439203588L44.16658002356692,296.27941341391767L46.80954113814376,295.1579039280529L49.19673182227768,295.27016220961764L51.83614056976502,294.3183970304294L54.393844874194215,295.2470670300353L57.03680598877105,294.38864976885884L59.59451029320026,293.1662803635706L62.23747140777708,292.10678249585294L64.88043252235391,293.14936607447646L67.43813682678312,294.04539413091175L70.08109794135994,293.8311257940529L72.64235461287863,294.3095405783471L75.28531572745547,294.4543075611529L77.9282768420323,293.11254991798234L80.31546752616622,292.5851955757235L82.95487627365357,291.1798985688353L85.51258057808276,292.4625954090706L88.1555416926596,292.06664967231177L90.71324599708879,292.01593998238235L93.35620711166563,290.3275749943059L95.99916822624246,289.39137951358236L98.55687253067165,289.1680189684765L101.19983364524849,290.14946736261174L103.76109031676718,289.5350601052412L106.404051431344,289.5007798333941L109.04701254592085,288.39103229855294L111.51946004020239,288.24155470720586L114.15886878768976,288.43512995045296L116.71657309211895,288.47465982047646L119.35953420669577,286.821566628L121.91723851112496,286.02163734054704L124.56019962570181,286.35197532912355L127.20316074027863,285.7940077516588L129.76086504470783,285.02341127101766L132.40382615928468,283.8873013565824L134.96508283080337,284.0842830002294L137.6080439453802,283.01663184582355L140.25100505995704,280.7936092993941L142.63819574409095,281.13640245608826L145.2776044915783,280.99988043088234L147.8353087960075,281.0558745393L150.47826991058432,280.11995857021765L153.0359742150135,280.24261626615885L155.67893532959036,280.03000002425296L158.32189644416718,281.7074732549294L160.87960074859637,279.92363371039414L163.52256186317322,278.06014259237645L166.0838185346919,279.60686508342354L168.72677964926874,277.9697203758L171.36974076384556,275.3561599253647L173.75693144797947,276.0439075843235L176.39634019546682,275.1219605239412L178.954044499896,274.06407690781765L181.59700561447286,273.9030869386059L184.15470991890206,273.65514629763527L186.79767103347888,273.18707884934116L189.44063214805573,274.75810292599414L191.99833645248492,271.5320469277588L194.64129756706174,271.24695997058825L197.20255423858043,273.0941295039L199.84551535315725,271.28675691982943L202.4884764677341,268.66120675247646L204.87566715186802,266.68533052152355L207.51507589935537,268.88804682748236L210.0727802037846,267.2312457255353L212.7157413183614,267.5695488171353L215.2734456227906,263.8187888012647L217.91640673736742,265.81119639285885L220.55936785194427,266.7347528458412L223.11707215637347,264.9194904529059L225.76003327095032,264.7202293932353L228.32128994246898,267.26077717561765L230.96425105704583,265.2996247087941L233.60721217162265,266.05699870789414L236.07965966590422,264.33406097177647L238.71906841339154,262.6962310153588L241.27677271782073,264.3206467152706L243.9197338323976,262.7008988456118L246.4774381368268,262.3327983596118L249.12039925140363,262.92034058064706L251.76336036598045,265.7614667096118L254.32106467040964,261.5332929620294L256.96402578498646,263.8103875634647L259.5252824565051,265.4157805131L262.16824357108203,264.8114580528L264.8112046856588,262.5763646511882L267.1983953697927,259.32644211204706L269.8378041172801,257.50482356131766L272.3955084217093,258.7892029875176L275.03846953628613,255.56431325062943L277.5961738407153,254.5789490365235L280.2391349552922,254.1224245092706L282.882096069869,253.60690565895882L285.4398003742982,252.43735858471766L288.08276148887506,252.45217737000002L290.6440181603937,254.4556476303353L293.2869792749705,253.3619078189647L295.92994038954737,247.5582246824294L298.3171310736813,247.39018499641764L300.95653982116863,248.0697958318412L303.5142441255978,249.66337693455884L306.1572052401747,248.1600754035353L308.71490954460387,250.75005494567648L311.3578706591807,253.5772361684647L314.00083177375757,253.23755641884705L316.55853607818676,251.37754389543528L319.20149719276355,249.3414266774294L321.7627538642823,253.99000643151177L324.40571497885907,252.74637042107648L327.0486760934359,248.0566725507353L329.43586677756986,250.08565096584707L332.0752755250572,246.41145055272352L334.6329798294864,249.2673192946059L337.2759409440632,248.02573162362353L339.8336452484924,250.25766043067648L342.47660636306927,248.46489513114705L345.11956747764606,248.45113918715293L347.67727178207525,248.72202567875294L350.3202328966521,248.4080046928059L352.88148956817076,249.6458902569L355.5244506827476,249.5909295232059L358.16741179732446,242.45124341456471L360.63985929160606,241.6124311026706L363.2792680390934,239.97565976551766L365.8369723435226,242.62242487042943L368.47993345809937,243.61598450629413L371.03763776252856,247.09051354964117L373.6805988771054,246.03679124648824L376.32355999168226,240.11394914957648L378.88126429611145,236.38521742252942L381.5242254106883,237.38611134225883L384.08548208220697,244.1880133438765L386.7284431967838,246.35161115682354L389.3714043113606,243.71670967482353L391.75859499549455,240.16844973481764L394.39800374298187,239.5217375990294L396.9557080474111,240.86614288219414L399.5986691619879,243.97129638372354L402.1563734664171,244.81681494642353L404.79933458099396,244.54252224518825L407.4422956955708,246.20682990728824L410,242.46650728817647" data-legend="r" style="stroke: rgb(31, 119, 180); fill: none;"></path><path class="line" d="M2.642961114576835,231.3492416634L5.20066541900603,237.6039933444353L7.843626533582865,236.42726876357648L10.404883205101545,234.99618348804705L13.047844319678381,229.1557824300353L15.690805434255218,236.23987592625883L18.07799611838913,233.41390289818236L20.717404865876482,235.86080596291765L23.275109170305676,230.95170074924118L25.91807028488251,234.27878899900588L28.47577458931171,236.20484843152943L31.11873570388854,238.03464179341765L33.761696818465374,237.0750134916353L36.319401122894575,230.40375623671764L38.96236223747141,227.95039875781765L41.52361890899009,225.05965986801178L44.16658002356692,222.97594152610588L46.80954113814376,226.09850093468825L49.19673182227768,229.4607644643L51.83614056976502,235.58482633235295L54.393844874194215,231.33892515328236L57.03680598877105,229.66682608004118L59.59451029320026,224.2158014677941L62.23747140777708,230.49505999868825L64.88043252235391,234.71578093840589L67.43813682678312,225.62307715852944L70.08109794135994,233.56989181528235L72.64235461287863,236.6394137040706L75.28531572745547,235.60341940002354L77.9282768420323,235.5745352575588L80.31546752616622,234.12772088474117L82.95487627365357,238.07399373328235L85.51258057808276,237.93556313415883L88.1555416926596,237.9626298699L90.71324599708879,235.61752483588236L93.35620711166563,236.81562641332943L95.99916822624246,238.94842916145882L98.55687253067165,236.76983697375883L101.19983364524849,237.09939950158235L103.76109031676718,238.2329931943941L106.404051431344,235.9091082003L109.04701254592085,235.84367542108237L111.51946004020239,233.3247213486706L114.15886878768976,232.50396127667648L116.71657309211895,232.86094641990002L119.35953420669577,228.54691310308237L121.91723851112496,228.54810158442353L124.56019962570181,226.5087082919647L127.20316074027863,229.62673085274707L129.76086504470783,227.48302613844706L132.40382615928468,223.44970681678234L134.96508283080337,224.61320877884117L137.6080439453802,226.05650843410587L140.25100505995704,222.0971185394294L142.63819574409095,222.2284904290412L145.2776044915783,218.02451132581766L147.8353087960075,216.99453894656472L150.47826991058432,214.98990158001178L153.0359742150135,213.7204164972706L155.67893532959036,217.46010415849412L158.32189644416718,214.93014545797058L160.87960074859637,208.9129602073059L163.52256186317322,204.84713896912942L166.0838185346919,209.60361044306472L168.72677964926874,207.85465880207647L171.36974076384556,206.84252209951765L173.75693144797947,202.72838950189413L176.39634019546682,202.08643097775882L178.954044499896,207.20836796248238L181.59700561447286,203.00647312182355L184.15470991890206,200.9397562377353L186.79767103347888,201.28904805291177L189.44063214805573,206.45900615758237L191.99833645248492,201.84700352608235L194.64129756706174,198.29687540385885L197.20255423858043,196.8912318784412L199.84551535315725,196.60456201360591L202.4884764677341,192.52110672114705L204.87566715186802,191.47041073145294L207.51507589935537,192.87503864064706L210.0727802037846,192.7203162772588L212.7157413183614,188.32135336911176L215.2734456227906,188.06891866856472L217.91640673736742,190.09483625775883L220.55936785194427,190.36749226708235L223.11707215637347,181.00066153088824L225.76003327095032,177.4025480609294L228.32128994246898,179.95618297725883L230.96425105704583,178.7890481416765L233.60721217162265,174.93541741810589L236.07965966590422,175.98020361144705L238.71906841339154,176.47926142935881L241.27677271782073,176.9198420759294L243.9197338323976,175.39301575538826L246.4774381368268,170.90559865035883L249.12039925140363,173.49638244042353L251.76336036598045,171.9478854939L254.32106467040964,162.82780394165295L256.96402578498646,155.8511450730706L259.5252824565051,156.70370986708235L262.16824357108203,156.06244278799414L264.8112046856588,149.68528969514117L267.1983953697927,148.61379496782354L269.8378041172801,144.05147258145885L272.3955084217093,145.5024589999765L275.03846953628613,139.93167222640588L277.5961738407153,132.39968940162356L280.2391349552922,134.72631030277063L282.882096069869,130.2434502520941L285.4398003742982,122.56120218485293L288.08276148887506,120.89231448922945L290.6440181603937,116.92860350248239L293.2869792749705,119.52313411535297L295.92994038954737,110.01346630012944L298.3171310736813,115.50502400036473L300.95653982116863,113.77056849831175L303.5142441255978,113.07185604337056L306.1572052401747,105.79664611397646L308.71490954460387,99.59172574102939L311.3578706591807,99.6704272341L314.00083177375757,101.71885575642352L316.55853607818676,97.70752933198236L319.20149719276355,84.66545519719415L321.7627538642823,87.18016757892357L324.40571497885907,97.22461209305294L327.0486760934359,86.01302306504118L329.43586677756986,79.08710499735886L332.0752755250572,69.01005251290587L334.6329798294864,76.57540033932355L337.2759409440632,73.2880572694412L339.8336452484924,66.18971628970593L342.47660636306927,64.67720829358237L345.11956747764606,79.33011737186473L347.67727178207525,60.70278650078822L350.3202328966521,52.02906076605882L352.88148956817076,56.21405918288826L355.5244506827476,57.0581397560118L358.16741179732446,53.700643437300016L360.63985929160606,40.65665982852357L363.2792680390934,30.721575194223533L365.8369723435226,18.477275456205916L368.47993345809937,18.628244150029445L371.03763776252856,17.819640960652976L373.6805988771054,22.80846553076475L376.32355999168226,25.693776301605908L378.88126429611145,13.226213448758813L381.5242254106883,11.363480135894122L384.08548208220697,15.279440291594142L386.7284431967838,19.555551766341182L389.3714043113606,21.099190075182378L391.75859499549455,23.109271823064717L394.39800374298187,14.36447686501765L396.9557080474111,14.462001285123563L399.5986691619879,21.60135964498238L402.1563734664171,14.859352476405888L404.79933458099396,18.981527095588262L407.4422956955708,26.586487614900022L410,16.096632444370698" data-legend="python" style="stroke: rgb(255, 127, 14); fill: none;"></path><path class="line" d="M2.642961114576835,218.7632693016706L5.20066541900603,211.17744934912943L7.843626533582865,218.5650190577647L10.404883205101545,207.51729741709414L13.047844319678381,211.07984102154705L15.690805434255218,203.90366037852354L18.07799611838913,212.32249517745885L20.717404865876482,212.19536670282355L23.275109170305676,201.02385933224116L25.91807028488251,201.89077130532354L28.47577458931171,203.64732280348238L31.11873570388854,198.88429684565295L33.761696818465374,205.28872099298823L36.319401122894575,199.82061813227648L38.96236223747141,196.83386146041178L41.52361890899009,191.29170295517648L44.16658002356692,196.21938267289414L46.80954113814376,195.2599054600588L49.19673182227768,198.3595289217706L51.83614056976502,193.2923942275059L54.393844874194215,189.51995377004118L57.03680598877105,189.36712896541763L59.59451029320026,186.77636311778824L62.23747140777708,188.4071970524647L64.88043252235391,184.0327011333706L67.43813682678312,185.55470121698824L70.08109794135994,184.06595087332943L72.64235461287863,173.6615937369353L75.28531572745547,179.68065684661767L77.9282768420323,180.45354500479414L80.31546752616622,181.04685793270588L82.95487627365357,172.53471061976472L85.51258057808276,170.9462178822L88.1555416926596,162.66727338135883L90.71324599708879,157.3244957644059L93.35620711166563,152.89991185879416L95.99916822624246,157.87568730688238L98.55687253067165,159.74241630508237L101.19983364524849,158.92803918142943L103.76109031676718,157.71772273364115L106.404051431344,153.74129820068825L109.04701254592085,157.30822356615883L111.51946004020239,158.1844202143059L114.15886878768976,153.51164603908236L116.71657309211895,148.34178510328238L119.35953420669577,147.8662168019294L121.91723851112496,146.3752982362765L124.56019962570181,144.21951638285293L127.20316074027863,150.3814174900059L129.76086504470783,153.01412720558824L132.40382615928468,152.0506853188059L134.96508283080337,146.1873670688471L137.6080439453802,144.71866771161177L140.25100505995704,142.16702455012944L142.63819574409095,143.81390366908238L145.2776044915783,141.50716363777062L147.8353087960075,139.94233841948827L150.47826991058432,136.47603717054707L153.0359742150135,131.34624589681763L155.67893532959036,124.70662352186471L158.32189644416718,110.67128094645881L160.87960074859637,110.28649188921176L163.52256186317322,114.23252241573533L166.0838185346919,107.1144871377706L168.72677964926874,102.05503639270589L171.36974076384556,100.6576707244412L173.75693144797947,106.91253302050589L176.39634019546682,104.94490772237648L178.954044499896,101.00748257064706L181.59700561447286,100.69570020737649L184.15470991890206,98.77483286142353L186.79767103347888,99.92603083252942L189.44063214805573,106.62085690327064L191.99833645248492,106.10047071112945L194.64129756706174,108.80874749550003L197.20255423858043,105.98131182081175L199.84551535315725,101.97579288878825L202.4884764677341,103.07650387582945L204.87566715186802,107.87544087908822L207.51507589935537,104.30693637008824L210.0727802037846,88.07818757922354L212.7157413183614,86.0893863720353L215.2734456227906,82.02273313452349L217.91640673736742,82.96861362151768L220.55936785194427,86.13771605932942L223.11707215637347,91.89883500061765L225.76003327095032,87.85310490543532L228.32128994246898,82.75775445995293L230.96425105704583,78.88689332391175L233.60721217162265,87.81378958800002L236.07965966590422,87.47648936442354L238.71906841339154,87.9313709428765L241.27677271782073,83.92448480366468L243.9197338323976,86.12608543762943L246.4774381368268,76.5414635929059L249.12039925140363,77.95286075724707L251.76336036598045,87.62771578145293L254.32106467040964,92.2919678577706L256.96402578498646,91.43729250494118L259.5252824565051,82.56488655711178L262.16824357108203,84.21455238792356L264.8112046856588,84.51672066882355L267.1983953697927,90.42163037006472L269.8378041172801,88.2217403090294L272.3955084217093,86.2249554695118L275.03846953628613,84.31217218279414L277.5961738407153,85.8792628042765L280.2391349552922,85.62696676729416L282.882096069869,91.29697474702948L285.4398003742982,91.93437806927648L288.08276148887506,95.39580866945295L290.6440181603937,91.94595256563531L293.2869792749705,89.86757180922353L295.92994038954737,99.56467237175295L298.3171310736813,102.51227493660002L300.95653982116863,102.97005095068235L303.5142441255978,107.77662193127648L306.1572052401747,101.37269532956472L308.71490954460387,100.95512335769999L311.3578706591807,98.5123878360177L314.00083177375757,101.71885575642352L316.55853607818676,105.7983414943412L319.20149719276355,106.76626670767058L321.7627538642823,106.91993901315882L324.40571497885907,108.2811716602765L327.0486760934359,108.31630373479416L329.43586677756986,107.67935830222945L332.0752755250572,111.43820405355882L334.6329798294864,109.25929498702942L337.2759409440632,105.09320657438826L339.8336452484924,108.81249132723528L342.47660636306927,101.4712399184647L345.11956747764606,105.45726426128823L347.67727178207525,113.03297643739413L350.3202328966521,110.58092682880587L352.88148956817076,107.52255808556473L355.5244506827476,105.17313021352942L358.16741179732446,106.47820089405883L360.63985929160606,99.47715118792942L363.2792680390934,96.24774159434116L365.8369723435226,94.7805878731765L368.47993345809937,94.20351629343531L371.03763776252856,86.43495837474705L373.6805988771054,83.18930905062356L376.32355999168226,88.77994093385297L378.88126429611145,93.11104969192942L381.5242254106883,98.59118750521765L384.08548208220697,93.24170427367062L386.7284431967838,92.01391405175298L389.3714043113606,99.47540485060591L391.75859499549455,105.20784523731177L394.39800374298187,99.18931022362943L396.9557080474111,98.17381272271766L399.5986691619879,100.06420545746474L402.1563734664171,94.87379117211177L404.79933458099396,92.84003340210006L407.4422956955708,92.06251339565299L410,99.44277085113532" data-legend="javascript" style="stroke: rgb(44, 160, 44); fill: none;"></path><path class="line" d="M2.642961114576835,155.5791454252059L5.20066541900603,158.81374180288236L7.843626533582865,165.25956521128236L10.404883205101545,177.3791643070059L13.047844319678381,170.88613279642942L15.690805434255218,177.54812419540588L18.07799611838913,174.67171775862352L20.717404865876482,171.80523538611178L23.275109170305676,174.48277133195296L25.91807028488251,166.8562618934647L28.47577458931171,175.8194377227353L31.11873570388854,180.7520786709706L33.761696818465374,177.92768483541178L36.319401122894575,177.22634462885296L38.96236223747141,172.19993609998235L41.52361890899009,173.32299962585296L44.16658002356692,152.4826999320706L46.80954113814376,158.07102005502355L49.19673182227768,148.78130114775882L51.83614056976502,161.93704783911176L54.393844874194215,157.3778171386059L57.03680598877105,163.44651681811766L59.59451029320026,168.0858478728353L62.23747140777708,168.71599013394706L64.88043252235391,163.04537770893532L67.43813682678312,160.1224125985412L70.08109794135994,157.27468314420003L72.64235461287863,155.1101856672L75.28531572745547,154.90250302980002L77.9282768420323,153.01069265931176L80.31546752616622,151.01865707701768L82.95487627365357,153.69008214183535L85.51258057808276,148.75765214260588L88.1555416926596,158.5933907806412L90.71324599708879,156.42760796507645L93.35620711166563,156.5311976971059L95.99916822624246,155.5355504348647L98.55687253067165,150.5675016149294L101.19983364524849,143.30025840744707L103.76109031676718,142.9236383221412L106.404051431344,145.49408467849415L109.04701254592085,143.4003090013059L111.51946004020239,135.8314702201059L114.15886878768976,134.81304831958235L116.71657309211895,139.60568250144706L119.35953420669577,149.6927963760706L121.91723851112496,146.99933228357648L124.56019962570181,146.40019250107062L127.20316074027863,144.2299548088765L129.76086504470783,140.29703961975883L132.40382615928468,136.90834250447648L134.96508283080337,137.2667059356353L137.6080439453802,145.63029979941177L140.25100505995704,141.27505103749414L142.63819574409095,137.5464529699765L145.2776044915783,132.16216467667059L147.8353087960075,137.42283351813532L150.47826991058432,144.00093474211766L153.0359742150135,147.57874413938822L155.67893532959036,143.22199290626472L158.32189644416718,126.05023721232354L160.87960074859637,120.05129880885883L163.52256186317322,111.62779048605881L166.0838185346919,113.1501713849471L168.72677964926874,124.9182365294647L171.36974076384556,118.48212757233532L173.75693144797947,112.6759568177471L176.39634019546682,109.86783484761179L178.954044499896,119.4615036416647L181.59700561447286,126.5751389932588L184.15470991890206,126.22778764791175L186.79767103347888,129.43431628134707L189.44063214805573,121.78304328416476L191.99833645248492,116.5148262055412L194.64129756706174,110.10459931801768L197.20255423858043,113.04980322232942L199.84551535315725,123.26779984374707L202.4884764677341,123.32294442097057L204.87566715186802,115.09704477892942L207.51507589935537,114.47815183032355L210.0727802037846,122.56708643504115L212.7157413183614,131.15949490494708L215.2734456227906,130.00098081598236L217.91640673736742,132.5687983623882L220.55936785194427,130.56794259457058L223.11707215637347,123.07304120325884L225.76003327095032,122.68453050307059L228.32128994246898,129.36481789581177L230.96425105704583,136.6717987424118L233.60721217162265,131.47365895429414L236.07965966590422,124.29720793113532L238.71906841339154,123.7896075861706L241.27677271782073,139.98265313211175L243.9197338323976,146.27752075335883L246.4774381368268,149.57258538487056L249.12039925140363,151.27012765247645L251.76336036598045,147.5762749790118L254.32106467040964,144.18343379336469L256.96402578498646,140.88559226032945L259.5252824565051,147.9698777885294L262.16824357108203,153.1309037938235L264.8112046856588,151.7694638995765L267.1983953697927,146.97943175989408L269.8378041172801,141.13142410665884L272.3955084217093,143.97542622508237L275.03846953628613,153.9214243917706L277.5961738407153,159.81475025355883L280.2391349552922,161.865440499L282.882096069869,159.83222775084707L285.4398003742982,153.18802630041176L288.08276148887506,150.46615409091177L290.6440181603937,153.17794015595294L293.2869792749705,162.74028502662355L295.92994038954737,159.83722532161764L298.3171310736813,160.0780870057412L300.95653982116863,151.98356713134706L303.5142441255978,156.66715696612943L306.1572052401747,163.65452987149413L308.71490954460387,168.45448077275293L311.3578706591807,172.1434559718353L314.00083177375757,166.5057371218412L316.55853607818676,160.08436611257648L319.20149719276355,159.41889821165296L321.7627538642823,158.34049194262943L324.40571497885907,167.9913797126647L327.0486760934359,165.6675968856L329.43586677756986,166.24020008657646L332.0752755250572,169.8031242124412L334.6329798294864,168.68563180399414L337.2759409440632,173.06866002894708L339.8336452484924,171.6822671595L342.47660636306927,181.36759622754704L345.11956747764606,173.4401004676059L347.67727178207525,168.7185650584941L350.3202328966521,175.73204858207646L352.88148956817076,178.22800849900588L355.5244506827476,178.7536226841353L358.16741179732446,176.45169968348824L360.63985929160606,173.62081916525295L363.2792680390934,176.86018751572942L365.8369723435226,184.84460756255294L368.47993345809937,187.63545095832353L371.03763776252856,187.6610195621647L373.6805988771054,187.7392843858412L376.32355999168226,187.14265396104707L378.88126429611145,187.32455521424117L381.5242254106883,187.80874303101177L384.08548208220697,195.82657451555295L386.7284431967838,198.34088574194118L389.3714043113606,197.8090437878294L391.75859499549455,197.53428649055297L394.39800374298187,197.5352241760765L396.9557080474111,193.91173549858237L399.5986691619879,195.4999527901059L402.1563734664171,201.37096831274118L404.79933458099396,203.27043253118825L407.4422956955708,202.68416603449413L410,202.81247059300588" data-legend="java" style="stroke: rgb(214, 39, 40); fill: none;"></path><path class="line" d="M2.642961114576835,204.14320039665884L5.20066541900603,200.90046001762943L7.843626533582865,196.7646355585412L10.404883205101545,206.63088173738822L13.047844319678381,204.34346534135295L15.690805434255218,214.54724229861176L18.07799611838913,208.31338461896473L20.717404865876482,214.87131743188237L23.275109170305676,215.9532213324L25.91807028488251,221.10934211578234L28.47577458931171,219.4311232346471L31.11873570388854,223.76845211842942L33.761696818465374,221.04695089046473L36.319401122894575,217.36671339091765L38.96236223747141,218.92104641705293L41.52361890899009,222.04129500430588L44.16658002356692,220.83858327451765L46.80954113814376,209.62743642765884L49.19673182227768,217.14276964330588L51.83614056976502,211.58005378584704L54.393844874194215,217.21690129288237L57.03680598877105,209.93145225569998L59.59451029320026,221.5582438314L62.23747140777708,226.42294072092352L64.88043252235391,220.5210352198059L67.43813682678312,218.36068401912354L70.08109794135994,213.9671469211765L72.64235461287863,219.9508017678706L75.28531572745547,222.47121970482354L77.9282768420323,226.31283996090002L80.31546752616622,226.57235144768825L82.95487627365357,222.78705322759413L85.51258057808276,231.4749306276353L88.1555416926596,231.86967387499413L90.71324599708879,232.29376416776472L93.35620711166563,234.73588997865883L95.99916822624246,231.58133160144706L98.55687253067165,224.0191475469353L101.19983364524849,227.23263863908235L103.76109031676718,225.63756879335295L106.404051431344,230.79644446699413L109.04701254592085,227.09054233252942L111.51946004020239,230.67940182271764L114.15886878768976,227.12622811009413L116.71657309211895,234.36081945695292L119.35953420669577,237.03036045857647L121.91723851112496,234.06456256254705L124.56019962570181,235.2690106289294L127.20316074027863,234.19677175528238L129.76086504470783,230.0382735045353L132.40382615928468,224.86331160481765L134.96508283080337,225.53016366772943L137.6080439453802,232.01025379762942L140.25100505995704,229.7194376473941L142.63819574409095,226.66878530546472L145.2776044915783,226.30475929909414L147.8353087960075,227.26391335455884L150.47826991058432,230.77765101695297L153.0359742150135,234.11868850226472L155.67893532959036,234.98840278445294L158.32189644416718,229.93556704699412L160.87960074859637,223.416288363L163.52256186317322,218.37170860397646L166.0838185346919,224.9865933031412L168.72677964926874,227.94769633528236L171.36974076384556,227.65810152134117L173.75693144797947,226.1651778531353L176.39634019546682,226.04709842495294L178.954044499896,231.8605330671353L181.59700561447286,238.25905318224707L184.15470991890206,237.3273999456353L186.79767103347888,236.32878392885294L189.44063214805573,233.92781605914706L191.99833645248492,229.9258263045353L194.64129756706174,230.24705804461763L197.20255423858043,230.66037950959412L199.84551535315725,234.52227349658824L202.4884764677341,231.73936798521174L204.87566715186802,230.9136341016706L207.51507589935537,233.1392160186706L210.0727802037846,234.7969640085353L212.7157413183614,238.4076487875706L215.2734456227906,239.09859380052353L217.91640673736742,242.47396210464706L220.55936785194427,240.92946955364118L223.11707215637347,232.81158247524706L225.76003327095032,229.34082656221767L228.32128994246898,232.42130232098822L230.96425105704583,240.15485177371767L233.60721217162265,238.09505990025883L236.07965966590422,238.0474000270941L238.71906841339154,237.6614177781353L241.27677271782073,242.36484368107057L243.9197338323976,244.77030895044706L246.4774381368268,244.9425202191L249.12039925140363,250.85745692481177L251.76336036598045,246.62938931945294L254.32106467040964,239.3042481610412L256.96402578498646,238.1261258454353L259.5252824565051,242.57176243831765L262.16824357108203,243.08180303417646L264.8112046856588,247.42797653119413L267.1983953697927,244.97938346520002L269.8378041172801,241.3498796103L272.3955084217093,249.36931955738825L275.03846953628613,253.15779628284707L277.5961738407153,250.2309679259647L280.2391349552922,251.86417587977647L282.882096069869,250.86110225336472L285.4398003742982,245.34064404255884L288.08276148887506,246.91037486537647L290.6440181603937,245.3565742744059L293.2869792749705,247.1420146012059L295.92994038954737,246.83681574751765L298.3171310736813,246.53499215558824L300.95653982116863,248.87024027954118L303.5142441255978,250.13122894445294L306.1572052401747,252.59557697329413L308.71490954460387,256.21482080262354L311.3578706591807,255.80337015698825L314.00083177375757,253.50878598878825L316.55853607818676,251.86520928605296L319.20149719276355,247.7390584959353L321.7627538642823,251.7502237534059L324.40571497885907,253.26090728405296L327.0486760934359,254.36800046878236L329.43586677756986,250.89591280251176L332.0752755250572,249.00933023244707L334.6329798294864,251.2517407983353L337.2759409440632,252.06218504925883L339.8336452484924,249.54806928134118L342.47660636306927,257.0149782859235L345.11956747764606,250.61969237897648L347.67727178207525,243.41418246354706L350.3202328966521,243.0949427343353L352.88148956817076,243.42219756841766L355.5244506827476,248.49851046638824L358.16741179732446,249.67550122122353L360.63985929160606,246.9442130039294L363.2792680390934,239.37298622795294L365.8369723435226,238.6295326632706L368.47993345809937,241.66064892312352L371.03763776252856,244.5103463633647L373.6805988771054,242.5765366803L376.32355999168226,250.47980790951178L378.88126429611145,245.60366199370588L381.5242254106883,245.2731458534647L384.08548208220697,246.15692688395296L386.7284431967838,251.97861737638235L389.3714043113606,250.17911368912942L391.75859499549455,253.52669483350587L394.39800374298187,253.30159485495884L396.9557080474111,249.78167533150588L399.5986691619879,252.69568501558234L402.1563734664171,255.25655816412353L404.79933458099396,257.78302534392355L407.4422956955708,251.27394334992354L410,249.02985190189412" data-legend="c++" style="stroke: rgb(148, 103, 189); fill: none;"></path><path class="line" d="M2.642961114576835,298.60155862648236L5.20066541900603,297.4307526671294L7.843626533582865,298.4528760097412L10.404883205101545,298.07943269398237L13.047844319678381,297.8668143679412L15.690805434255218,297.26307893484704L18.07799611838913,297.9954447207706L20.717404865876482,297.3240492709588L23.275109170305676,297.09706849997644L25.91807028488251,297.2904965742706L28.47577458931171,297.85516300761174L31.11873570388854,298.1486624086059L33.761696818465374,297.24770642202355L36.319401122894575,296.56919925111174L38.96236223747141,294.5823885955588L41.52361890899009,295.23664294944706L44.16658002356692,296.3585748306353L46.80954113814376,295.59448636078235L49.19673182227768,295.84863157967646L51.83614056976502,293.43064656642355L54.393844874194215,292.9218911886176L57.03680598877105,295.34512992188826L59.59451029320026,295.5902065594059L62.23747140777708,296.0952280898294L64.88043252235391,295.2103618741059L67.43813682678312,295.4923077065824L70.08109794135994,296.02337034658234L72.64235461287863,295.4323218095294L75.28531572745547,296.07364975330586L77.9282768420323,293.8184066034L80.31546752616622,292.44463056294705L82.95487627365357,292.9402129301118L85.51258057808276,294.65144358068824L88.1555416926596,294.42521328324705L90.71324599708879,295.00556598017647L93.35620711166563,295.7910095965059L95.99916822624246,295.3717292976L98.55687253067165,293.0054357590412L101.19983364524849,292.9894067556L103.76109031676718,293.3869760925706L106.404051431344,293.0461686722647L109.04701254592085,292.0750589491941L111.51946004020239,292.3947063629294L114.15886878768976,291.4944016243059L116.71657309211895,292.90849502652355L119.35953420669577,293.0048767419706L121.91723851112496,293.08570275594707L124.56019962570181,292.5305576640706L127.20316074027863,292.60216252727645L129.76086504470783,291.0684640676294L132.40382615928468,289.9250709597706L134.96508283080337,291.1841337112412L137.6080439453802,291.86283951261174L140.25100505995704,290.6169020099647L142.63819574409095,289.87408616691175L145.2776044915783,289.17675452184704L147.8353087960075,289.1778228288529L150.47826991058432,289.9593491541353L153.0359742150135,290.06623179728825L155.67893532959036,290.51373050059414L158.32189644416718,290.4802019506412L160.87960074859637,289.3910840342647L163.52256186317322,287.9681421248647L166.0838185346919,288.7191459026118L168.72677964926874,289.60253157924706L171.36974076384556,288.3835333999412L173.75693144797947,287.9112824341588L176.39634019546682,287.1749573785412L178.954044499896,287.4131541064588L181.59700561447286,288.78920109737646L184.15470991890206,288.93895494421764L186.79767103347888,290.01957476749413L189.44063214805573,288.5777485591765L191.99833645248492,287.4044668061647L194.64129756706174,286.9565078847L197.20255423858043,288.62200900207057L199.84551535315725,289.1938259586706L202.4884764677341,287.47501674914116L204.87566715186802,287.098272981L207.51507589935537,285.7528195207588L210.0727802037846,286.6784358534353L212.7157413183614,288.47505084675885L215.2734456227906,289.8013302770647L217.91640673736742,290.0388660354706L220.55936785194427,290.64258883715297L223.11707215637347,289.92935942659415L225.76003327095032,288.84119088405885L228.32128994246898,291.0121567529294L230.96425105704583,290.8760675655L233.60721217162265,289.8963439733647L236.07965966590422,289.09570771678233L238.71906841339154,289.9174119189L241.27677271782073,289.3834915640647L243.9197338323976,290.48462775208236L246.4774381368268,291.0182079933706L249.12039925140363,290.8549242414353L251.76336036598045,291.23286041504116L254.32106467040964,290.9418419541L256.96402578498646,292.1260669179353L259.5252824565051,291.9903298777235L262.16824357108203,292.05160045911174L264.8112046856588,291.39896889294704L267.1983953697927,290.51185899834707L269.8378041172801,290.5721301803471L272.3955084217093,290.5323967956529L275.03846953628613,292.02154748029415L277.5961738407153,292.7797762423941L280.2391349552922,292.80371436735885L282.882096069869,293.66268573988236L285.4398003742982,292.74627849894705L288.08276148887506,292.12979758374706L290.6440181603937,293.8890476385L293.2869792749705,293.62460945181175L295.92994038954737,293.77493902932355L298.3171310736813,294.2094171500294L300.95653982116863,293.3771445697765L303.5142441255978,294.3964088814L306.1572052401747,294.7212911005941L308.71490954460387,294.8481450714706L311.3578706591807,295.4577872153294L314.00083177375757,294.69869476934116L316.55853607818676,294.2588483560235L319.20149719276355,294.07717242550586L321.7627538642823,294.34657263778234L324.40571497885907,295.1298487620706L327.0486760934359,295.6540952827412L329.43586677756986,294.99413577621175L332.0752755250572,294.32660356939414L334.6329798294864,294.6255250940824L337.2759409440632,295.2666995660294L339.8336452484924,295.4822696824941L342.47660636306927,295.86832871941766L345.11956747764606,296.0678643931412L347.67727178207525,294.92598247711766L350.3202328966521,295.19179913260587L352.88148956817076,296.12867495835883L355.5244506827476,296.0430154164706L358.16741179732446,295.94018788794705L360.63985929160606,296.57079839257057L363.2792680390934,295.81044685974706L365.8369723435226,296.4740570008412L368.47993345809937,296.9066384160353L371.03763776252856,296.6811127479706L373.6805988771054,297.25813738528234L376.32355999168226,296.97557873954116L378.88126429611145,296.0546059240235L381.5242254106883,295.4052597113647L384.08548208220697,295.9503028323353L386.7284431967838,296.07814718032944L389.3714043113606,296.03087642721175L391.75859499549455,296.29867342881175L394.39800374298187,295.92426757219414L396.9557080474111,296.35273672528234L399.5986691619879,296.91813804174706L402.1563734664171,296.98014207488825L404.79933458099396,297.6135598257706L407.4422956955708,296.7292959685765L410,296.93869407310586" data-legend="matlab" style="stroke: rgb(140, 86, 75); fill: none;"></path></g></g><g transform="translate(20, 150)"><text transform="rotate(-90)" x="-50" y="0" dy="1em" class="axis-label y-axis-label" style="text-anchor: middle; font-weight: bold;">% of Stack Overflow questions that month</text></g><g class="legend" transform="translate(530, 30)" style="font-size: 12px;"><text class="legend-title" style="font-weight: bold;">Tag</text><g class="legend-items" transform="translate(0,20)"><text y="0em" x="1em">python</text><text y="1em" x="1em">javascript</text><text y="2em" x="1em">java</text><text y="3em" x="1em">c++</text><text y="4em" x="1em">r</text><text y="5em" x="1em">matlab</text><circle cy="-0.25em" cx="0" r="0.4em" style="fill: rgb(255, 127, 14);"></circle><circle cy="0.75em" cx="0" r="0.4em" style="fill: rgb(44, 160, 44);"></circle><circle cy="1.75em" cx="0" r="0.4em" style="fill: rgb(214, 39, 40);"></circle><circle cy="2.75em" cx="0" r="0.4em" style="fill: rgb(148, 103, 189);"></circle><circle cy="3.75em" cx="0" r="0.4em" style="fill: rgb(31, 119, 180);"></circle><circle cy="4.75em" cx="0" r="0.4em" style="fill: rgb(140, 86, 75);"></circle></g><rect class="legend-box"></rect></g></svg>
        