
            <svg id="trend-chart" width="660" height="400" title="Stack Overflow Trends Chart" version="1.1" xmlns="http://www.w3.org/2000/svg"><g></g><g class="chart-area" transform="translate(100, 20)"><g transform="translate(0,300)" fill="none" font-size="10" font-family="sans-serif" text-anchor="middle"><path class="domain" stroke="#000" d="M0.5,6V0.5H410.5V6"></path><g class="tick" opacity="1" transform="translate(12.420246107152282,0)"><line stroke="#000" y2="6" x1="0.5" x2="0.5"></line><text fill="#000" y="9" x="0.5" dy="0.71em" style="font-size: 12px;">2009</text></g><g class="tick" opacity="1" transform="translate(42.042178015307464,0)"><line stroke="#000" y2="6" x1="0.5" x2="0.5"></line><text fill="#000" y="9" x="0.5" dy="0.71em" style="font-size: 12px;">2010</text></g><g class="tick" opacity="1" transform="translate(71.66410992346266,0)"><line stroke="#000" y2="6" x1="0.5" x2="0.5"></line><text fill="#000" y="9" x="0.5" dy="0.71em" style="font-size: 12px;">2011</text></g><g class="tick" opacity="1" transform="translate(101.28604183161785,0)"><line stroke="#000" y2="6" x1="0.5" x2="0.5"></line><text fill="#000" y="9" x="0.5" dy="0.71em" style="font-size: 12px;">2012</text></g><g class="tick" opacity="1" transform="translate(130.9891297176036,0)"><line stroke="#000" y2="6" x1="0.5" x2="0.5"></line><text fill="#000" y="9" x="0.5" dy="0.71em" style="font-size: 12px;">2013</text></g><g class="tick" opacity="1" transform="translate(160.6110616257588,0)"><line stroke="#000" y2="6" x1="0.5" x2="0.5"></line><text fill="#000" y="9" x="0.5" dy="0.71em" style="font-size: 12px;">2014</text></g><g class="tick" opacity="1" transform="translate(190.23299353391397,0)"><line stroke="#000" y2="6" x1="0.5" x2="0.5"></line><text fill="#000" y="9" x="0.5" dy="0.71em" style="font-size: 12px;">2015</text></g><g class="tick" opacity="1" transform="translate(219.85492544206915,0)"><line stroke="#000" y2="6" x1="0.5" x2="0.5"></line><text fill="#000" y="9" x="0.5" dy="0.71em" style="font-size: 12px;">2016</text></g><g class="tick" opacity="1" transform="translate(249.5580133280549,0)"><line stroke="#000" y2="6" x1="0.5" x2="0.5"></line><text fill="#000" y="9" x="0.5" dy="0.71em" style="font-size: 12px;">2017</text></g><g class="tick" opacity="1" transform="translate(279.1799452362101,0)"><line stroke="#000" y2="6" x1="0.5" x2="0.5"></line><text fill="#000" y="9" x="0.5" dy="0.71em" style="font-size: 12px;">2018</text></g><g class="tick" opacity="1" transform="translate(308.8018771443653,0)"><line stroke="#000" y2="6" x1="0.5" x2="0.5"></line><text fill="#000" y="9" x="0.5" dy="0.71em" style="font-size: 12px;">2019</text></g><g class="tick" opacity="1" transform="translate(338.4238090525204,0)"><line stroke="#000" y2="6" x1="0.5" x2="0.5"></line><text fill="#000" y="9" x="0.5" dy="0.71em" style="font-size: 12px;">2020</text></g><g class="tick" opacity="1" transform="translate(368.1268969385062,0)"><line stroke="#000" y2="6" x1="0.5" x2="0.5"></line><text fill="#000" y="9" x="0.5" dy="0.71em" style="font-size: 12px;">2021</text></g><g class="tick" opacity="1" transform="translate(397.7488288466614,0)"><line stroke="#000" y2="6" x1="0.5" x2="0.5"></line><text fill="#000" y="9" x="0.5" dy="0.71em" style="font-size: 12px;">2022</text></g></g><g class="grid-lines" transform="translate(0,300)" fill="none" font-size="10" font-family="sans-serif" text-anchor="middle"><path class="domain" stroke="#000" d="M0.5,-300V0.5H410.5V-300"></path><g class="tick" opacity="1" transform="translate(12.420246107152282,0)"><line stroke="#000" y2="-300" x1="0.5" x2="0.5" style="stroke: #ccc; fill: none;"></line></g><g class="tick" opacity="1" transform="translate(42.042178015307464,0)"><line stroke="#000" y2="-300" x1="0.5" x2="0.5" style="stroke: #ccc; fill: none;"></line></g><g class="tick" opacity="1" transform="translate(71.66410992346266,0)"><line stroke="#000" y2="-300" x1="0.5" x2="0.5" style="stroke: #ccc; fill: none;"></line></g><g class="tick" opacity="1" transform="translate(101.28604183161785,0)"><line stroke="#000" y2="-300" x1="0.5" x2="0.5" style="stroke: #ccc; fill: none;"></line></g><g class="tick" opacity="1" transform="translate(130.9891297176036,0)"><line stroke="#000" y2="-300" x1="0.5" x2="0.5" style="stroke: #ccc; fill: none;"></line></g><g class="tick" opacity="1" transform="translate(160.6110616257588,0)"><line stroke="#000" y2="-300" x1="0.5" x2="0.5" style="stroke: #ccc; fill: none;"></line></g><g class="tick" opacity="1" transform="translate(190.23299353391397,0)"><line stroke="#000" y2="-300" x1="0.5" x2="0.5" style="stroke: #ccc; fill: none;"></line></g><g class="tick" opacity="1" transform="translate(219.85492544206915,0)"><line stroke="#000" y2="-300" x1="0.5" x2="0.5" style="stroke: #ccc; fill: none;"></line></g><g class="tick" opacity="1" transform="translate(249.5580133280549,0)"><line stroke="#000" y2="-300" x1="0.5" x2="0.5" style="stroke: #ccc; fill: none;"></line></g><g class="tick" opacity="1" transform="translate(279.1799452362101,0)"><line stroke="#000" y2="-300" x1="0.5" x2="0.5" style="stroke: #ccc; fill: none;"></line></g><g class="tick" opacity="1" transform="translate(308.8018771443653,0)"><line stroke="#000" y2="-300" x1="0.5" x2="0.5" style="stroke: #ccc; fill: none;"></line></g><g class="tick" opacity="1" transform="translate(338.4238090525204,0)"><line stroke="#000" y2="-300" x1="0.5" x2="0.5" style="stroke: #ccc; fill: none;"></line></g><g class="tick" opacity="1" transform="translate(368.1268969385062,0)"><line stroke="#000" y2="-300" x1="0.5" x2="0.5" style="stroke: #ccc; fill: none;"></line></g><g class="tick" opacity="1" transform="translate(397.7488288466614,0)"><line stroke="#000" y2="-300" x1="0.5" x2="0.5" style="stroke: #ccc; fill: none;"></line></g></g><text x="205" y="360" class="axis-label x-axis-label" style="text-anchor: middle; font-weight: bold;">Year</text><g fill="none" font-size="10" font-family="sans-serif" text-anchor="end"><path class="domain" stroke="#000" d="M-6,300.5H0.5V0.5H-6"></path><g class="tick" opacity="1" transform="translate(0,300)"><line stroke="#000" x2="-6" y1="0.5" y2="0.5"></line><text fill="#000" x="-9" y="0.5" dy="0.32em" style="font-size: 12px;">0.00%</text></g><g class="tick" opacity="1" transform="translate(0,266.6666666666667)"><line stroke="#000" x2="-6" y1="0.5" y2="0.5"></line><text fill="#000" x="-9" y="0.5" dy="0.32em" style="font-size: 12px;">2.00%</text></g><g class="tick" opacity="1" transform="translate(0,233.33333333333331)"><line stroke="#000" x2="-6" y1="0.5" y2="0.5"></line><text fill="#000" x="-9" y="0.5" dy="0.32em" style="font-size: 12px;">4.00%</text></g><g class="tick" opacity="1" transform="translate(0,200)"><line stroke="#000" x2="-6" y1="0.5" y2="0.5"></line><text fill="#000" x="-9" y="0.5" dy="0.32em" style="font-size: 12px;">6.00%</text></g><g class="tick" opacity="1" transform="translate(0,166.66666666666666)"><line stroke="#000" x2="-6" y1="0.5" y2="0.5"></line><text fill="#000" x="-9" y="0.5" dy="0.32em" style="font-size: 12px;">8.00%</text></g><g class="tick" opacity="1" transform="translate(0,133.33333333333331)"><line stroke="#000" x2="-6" y1="0.5" y2="0.5"></line><text fill="#000" x="-9" y="0.5" dy="0.32em" style="font-size: 12px;">10.00%</text></g><g class="tick" opacity="1" transform="translate(0,100)"><line stroke="#000" x2="-6" y1="0.5" y2="0.5"></line><text fill="#000" x="-9" y="0.5" dy="0.32em" style="font-size: 12px;">12.00%</text></g><g class="tick" opacity="1" transform="translate(0,66.66666666666663)"><line stroke="#000" x2="-6" y1="0.5" y2="0.5"></line><text fill="#000" x="-9" y="0.5" dy="0.32em" style="font-size: 12px;">14.00%</text></g><g class="tick" opacity="1" transform="translate(0,33.333333333333314)"><line stroke="#000" x2="-6" y1="0.5" y2="0.5"></line><text fill="#000" x="-9" y="0.5" dy="0.32em" style="font-size: 12px;">16.00%</text></g><g class="tick" opacity="1" transform="translate(0,0)"><line stroke="#000" x2="-6" y1="0.5" y2="0.5"></line><text fill="#000" x="-9" y="0.5" dy="0.32em" style="font-size: 12px;">18.00%</text></g></g><g class="grid-lines" fill="none" font-size="10" font-family="sans-serif" text-anchor="end"><path class="domain" stroke="#000" d="M410,300.5H0.5V0.5H410"></path><g class="tick" opacity="1" transform="translate(0,300)"><line stroke="#000" x2="410" y1="0.5" y2="0.5" style="stroke: #ccc; fill: none;"></line></g><g class="tick" opacity="1" transform="translate(0,266.6666666666667)"><line stroke="#000" x2="410" y1="0.5" y2="0.5" style="stroke: #ccc; fill: none;"></line></g><g class="tick" opacity="1" transform="translate(0,233.33333333333331)"><line stroke="#000" x2="410" y1="0.5" y2="0.5" style="stroke: #ccc; fill: none;"></line></g><g class="tick" opacity="1" transform="translate(0,200)"><line stroke="#000" x2="410" y1="0.5" y2="0.5" style="stroke: #ccc; fill: none;"></line></g><g class="tick" opacity="1" transform="translate(0,166.66666666666666)"><line stroke="#000" x2="410" y1="0.5" y2="0.5" style="stroke: #ccc; fill: none;"></line></g><g class="tick" opacity="1" transform="translate(0,133.33333333333331)"><line stroke="#000" x2="410" y1="0.5" y2="0.5" style="stroke: #ccc; fill: none;"></line></g><g class="tick" opacity="1" transform="translate(0,100)"><line stroke="#000" x2="410" y1="0.5" y2="0.5" style="stroke: #ccc; fill: none;"></line></g><g class="tick" opacity="1" transform="translate(0,66.66666666666663)"><line stroke="#000" x2="410" y1="0.5" y2="0.5" style="stroke: #ccc; fill: none;"></line></g><g class="tick" opacity="1" transform="translate(0,33.333333333333314)"><line stroke="#000" x2="410" y1="0.5" y2="0.5" style="stroke: #ccc; fill: none;"></line></g><g class="tick" opacity="1" transform="translate(0,0)"><line stroke="#000" x2="410" y1="0.5" y2="0.5" style="stroke: #ccc; fill: none;"></line></g></g><g class="lines"><path class="line" d="M2.5158353127474267,235.26220614828333L4.950514647664291,241.18328123191668L7.466349960411718,239.90640289301666L9.904410794404857,238.63401269256667L12.420246107152282,232.96362400136667L14.93608141989971,239.72324440356667L17.208448799155452,237.07583843975L19.720902612826603,239.37238162991667L22.155581947743467,234.80958913058333L24.671417260490895,237.93629237845L27.106096595407756,239.70204493238333L29.621931908155183,241.5421349471L32.13776722090261,240.59274670583335L34.57244655581948,234.2336834695L37.08828186856691,232.01742873641666L39.526342702560044,229.20219923188336L42.042178015307464,227.23710384229997L44.55801332805489,230.17744378948333L46.83038070731063,233.33590599495L49.34283452098179,239.20115960703333L51.777513855898654,235.11068023914999L54.29334916864608,233.55261572568332L56.72802850356294,228.46023912828332L59.243863816310366,234.34854570565L61.75969912905779,238.3863643842L64.19437846397467,229.76368845780001L66.71021377672209,237.23960214821665L69.14827461071523,240.16537691956665L71.66410992346266,239.15041146311665L74.17994523621009,239.14147232766666L76.45231261546583,237.78827092238333L78.96476642913699,241.51125120393334L81.39944576405384,241.41393921196666L83.91528107680126,241.44669064869998L86.34996041171813,239.13040587486665L88.86579572446556,240.30348975785L91.38163103721298,242.36490648633333L93.81631037212985,240.2572317591L96.33214568487728,240.54027526003333L98.77020651887042,241.67898800723333L101.28604183161785,239.43838157271665L103.80187714436528,239.37946592406666L106.15540050145157,237.041369244L108.66785431512271,236.22654033843332L111.10253365003959,236.58028356733334L113.61836896278702,232.5088104262333L116.05304829770388,232.47275909820002L118.56888361045131,230.60144623744998L121.08471892319874,233.51724068051666L123.51939825811559,231.50210177981666L126.03523357086301,227.67944869305L128.47329440485615,228.77429387134998L130.9891297176036,230.18144526429998L133.504965030351,226.38394245638335L135.77733240960674,226.50920155379998L138.28978622327793,222.52153971578332L140.72446555819477,221.50670096660002L143.2403008709422,219.60457865216665L145.67498020585907,218.41133880481667L148.19081551860648,221.99560666041668L150.70665083135393,219.54064804036668L153.1413301662708,213.92669207041666L155.65716547901823,210.03082382648333L158.09522631301135,214.5291369212L160.6110616257588,212.89072115291668L163.1268969385062,211.97483927466666L165.39926431776195,208.02547606505L167.9117181314331,207.44230633533334L170.34639746634997,212.29917107685L172.86223277909738,208.340274136L175.29691211401425,206.41327655463334L177.81274742676166,206.70465617043334L180.3285827395091,211.61730656463334L182.76326207442597,207.2374535316L185.2790973871734,203.91241022551662L187.71715822116653,202.57395346231664L190.23299353391397,202.31535330038332L192.74882884666138,198.43969427331666L195.02119622591712,197.48046405811667L197.53365003958828,198.82199068551665L199.96832937450515,198.67293886415L202.48416468725256,194.54539610431667L204.91884402216945,194.21518535306666L207.43467933491686,196.20093959236664L209.9505146476643,196.47405762789998L212.38519398258117,187.61343993086666L214.9010292953286,184.24984561626667L217.3390901293217,186.54606165683333L219.85492544206915,185.5158553588L222.37076075481656,181.89474735158333L224.72428411190288,182.8927441484L227.23673792557403,183.36910549116664L229.6714172604909,183.78570161435L232.18725257323834,182.30337386051667L234.6219319081552,178.11553791676664L237.13776722090262,180.51815868609998L239.65360253365006,179.0676056503833L242.0882818685669,170.4796446082L244.6041171813143,163.8734810565333L247.04217801530746,164.74719013765L249.5580133280549,164.19576825335L252.0738486408023,158.12639630866667L254.34621602005808,157.07679774568334L256.8586698337292,152.72570444950003L259.2933491686461,154.10681339848333L261.8091844813935,148.81688524466668L264.24386381631035,141.75118209285L266.75969912905776,143.9171807772L269.27553444180523,139.68690843878332L271.71021377672207,132.51340664210005L274.2260490894695,131.02147775561667L276.66410992346266,127.13039935366666L279.1799452362101,129.57836939275L281.69578054895754,120.72326463111668L283.9681479282132,125.74089325803331L286.4806017418844,124.15132186981666L288.91528107680125,123.51392840494998L291.43111638954866,116.56514049911667L293.86579572446556,110.68261540769998L296.38163103721297,111.13029760383333L298.89746634996044,113.01337974953333L301.3321456848773,109.21508098338333L303.8479809976247,96.98048666018329L306.2860418316178,99.16338306018332L308.8018771443653,108.49918459761665L311.3177124571127,98.05669361089997L313.59007983636843,91.40181504651665L316.10253365003956,81.9055357021L318.53721298495645,89.11674002416669L321.05304829770387,85.85160701451667L323.48772763262076,79.30786223426665L326.0035629453682,77.88456799251662L328.5193982581156,91.72685943168332L330.9540775930324,74.07707139319999L333.4699129057799,65.87469369013334L335.907973739773,69.83001032245L338.4238090525204,70.72383301071667L340.9396443652679,67.41676298163335L343.2931677223542,55.22733742205L345.80562153602534,45.76395902203333L348.24030087094224,34.31311010585L350.75613618368965,34.35358163945L353.1908155186065,33.69572928131663L355.7066508313539,38.440050155666654L358.2224861441013,41.287927403766616L360.6571654790182,29.263629333383335L363.1730007917656,23.32202815836672L365.6110616257588,20.89476232406662L368.1268969385062,24.666508118399975L370.6427322512536,26.158921795450055L372.91509963050936,29.497081406983398L375.42755344418055,19.32534608535002L377.8622327790974,17.953919866966658L380.3780680918448,26.769560490450033L382.8127474267617,26.072728609783326L385.3285827395091,34.67261698521662L387.8444180522565,41.697810239733315L390.2790973871734,30.70365410006667L392.7949326999208,26.3223716533833L395.232993533914,24.07187011956671L397.7488288466614,31.581953169633266L400.2646641594088,24.97081144191668L402.53703153866456,26.59788766096665L405.0494853523357,16.342692584599888L407.4841646872526,27.925765826466716L410,26.777099194066636" data-legend="python" style="stroke: rgb(31, 119, 180); fill: none;"></path><path class="line" d="M2.5158353127474267,223.20675105486666L4.950514647664291,216.17459766123335L7.466349960411718,222.75579663901667L9.904410794404857,212.49405910146666L12.420246107152282,215.8592554819L14.93608141989971,209.15363385464997L17.208448799155452,217.06200171313333L19.720902612826603,217.08165362423335L22.155581947743467,206.46025213926666L24.671417260490895,207.38093536321665L27.106096595407756,208.87731445385L29.621931908155183,204.49137540653334L32.13776722090261,210.40468322931667L34.57244655581948,205.28724133460003L37.08828186856691,202.48831959683332L39.526342702560044,197.21175181116666L42.042178015307464,201.9607843137333L44.55801332805489,200.96596619118333L46.83038070731063,203.91108881471666L49.34283452098179,199.10479411608333L51.777513855898654,195.5566327355L54.29334916864608,195.41916672691667L56.72802850356294,193.02156128905L59.243863816310366,194.49908810105L61.75969912905779,190.4006668641L64.19437846397467,191.91178403386667L66.71021377672209,190.49442477663334L69.14827461071523,180.62004291121667L71.66410992346266,186.32886027023332L74.17994523621009,187.07519292416669L76.45231261546583,187.6303756612333L78.96476642913699,179.5376937221L81.39944576405384,178.02355453241665L83.91528107680126,170.26059347081664L86.34996041171813,165.1460903503L88.86579572446556,160.99931989343332L91.38163103721298,165.72563205285L93.81631037212985,167.49466023258333L96.33214568487728,166.67954935143334L98.77020651887042,165.60880307438333L101.28604183161785,161.8240377288L103.80187714436528,165.11829976469997L106.15540050145157,166.0473276948L108.66785431512271,161.6145744201L111.10253365003959,156.69953899175002L113.61836896278702,156.33506728659998L116.05304829770388,154.77809781954997L118.56888361045131,152.77084976516662L121.08471892319874,158.54839853685L123.51939825811559,161.13719703068332L126.03523357086301,160.26025890056667L128.47329440485615,154.61438083283335L130.9891297176036,153.32039727321666L133.504965030351,150.88422500536666L135.77733240960674,152.53573662628332L138.28978622327793,150.331477995L140.72446555819477,148.6495408559833L143.2403008709422,145.47896226256668L145.67498020585907,140.69024746759996L148.19081551860648,134.50246510796666L150.70665083135393,121.1643868839833L153.1413301662708,120.89457448739998L155.65716547901823,124.63024678018334L158.09522631301135,117.84748884481664L160.6110616257588,112.98687959653333L163.1268969385062,111.66833977659996L165.39926431776195,117.63796984183332L167.9117181314331,115.76234461133333L170.34639746634997,112.19294751418332L172.86223277909738,111.78599705916668L175.29691211401425,109.91966415994997L177.81274742676166,111.12707652756666L180.3285827395091,117.31019181826667L182.76326207442597,116.85641263941667L185.2790973871734,119.46662648788333L187.71715822116653,116.90845314861667L190.23299353391397,112.84934250913335L192.74882884666138,114.07004145278333L195.02119622591712,118.55949807115002L197.53365003958828,115.21249237785003L199.96832937450515,99.84789198525002L202.48416468725256,98.02822836979999L204.91884402216945,94.14754075844999L207.43467933491686,94.95431509636666L209.9505146476643,97.97007215759999L212.38519398258117,103.44281186978333L214.9010292953286,99.6682632205333L217.3390901293217,94.87613565826666L219.85492544206915,91.23097801904999L222.37076075481656,99.61597295766666L224.72428411190288,99.23161379429999L227.23673792557403,99.70152872616666L229.6714172604909,96.00851516765002L232.18725257323834,98.04805626384999L234.6219319081552,88.96168693798333L237.13776722090262,90.26601896831664L239.65360253365006,99.47559681749999L242.0882818685669,103.83408652601668L244.6041171813143,103.02934304074998L247.04217801530746,94.73128779916667L249.5580133280549,96.31268857733335L252.0738486408023,96.54954482499997L254.34621602005808,102.08771543235L256.8586698337292,100.06855222965001L259.2933491686461,98.13555378814999L261.8091844813935,96.41856742698332L264.24386381631035,97.7619791023333L266.75969912905776,97.55237856748332L269.27553444180523,102.91670817974997L271.71021377672207,103.60332559893334L274.2260490894695,106.78781506749999L276.66410992346266,103.52938725338333L279.1799452362101,101.6522680905833L281.69578054895754,110.70602310013334L283.9681479282132,113.56222607734998L286.4806017418844,113.97671652431666L288.91528107680125,118.53088682066664L291.43111638954866,112.46042662824999L293.86579572446556,112.06588147839997L296.38163103721297,109.75526562633334L298.89746634996044,112.76772951336667L301.3321456848773,116.91676083338331L303.8479809976247,117.6491028557L306.2860418316178,117.75345098100001L308.8018771443653,118.97162037759998L311.3177124571127,119.09533827926663L313.59007983636843,118.39045736991665L316.10253365003956,122.10053263049997L318.53721298495645,119.8665943140833L321.05304829770387,115.93261059339997L323.48772763262076,119.55362972106667L326.0035629453682,112.54620730446666L328.5193982581156,116.2978547916L330.9540775930324,123.45176183401668L333.4699129057799,121.06729951763333L335.907973739773,118.12426586121666L338.4238090525204,116.03945800354998L340.9396443652679,117.37289905728332L343.2931677223542,110.50901845094995L345.80562153602534,107.68346366598334L348.24030087094224,106.25419363218333L350.75613618368965,105.72200681471668L353.1908155186065,98.2905775026833L355.7066508313539,95.21661939064998L358.2224861441013,100.55283810828334L360.6571654790182,104.92416155463334L363.1730007917656,106.36775186386666L365.6110616257588,98.67345991656669L368.1268969385062,96.91407404205L370.6427322512536,104.51413892251662L372.91509963050936,110.48888407535L375.42755344418055,104.1005476759L377.8622327790974,101.3329626485L380.3780680918448,104.22603348991666L382.8127474267617,104.365677587L385.3285827395091,104.36248897020002L387.8444180522565,103.84285639853331L390.2790973871734,110.28980138489999L392.7949326999208,114.62936451406665L395.232993533914,108.76230936491669L397.7488288466614,106.96744717304998L400.2646641594088,112.22027631834999L402.53703153866456,118.03612567193332L405.0494853523357,107.73938084953332L407.4841646872526,110.82402365315L410,113.13384831331666" data-legend="javascript" style="stroke: rgb(255, 127, 14); fill: none;"></path><path class="line" d="M2.5158353127474267,163.41169379144998L4.950514647664291,166.8519161746L7.466349960411718,172.7664326739L9.904410794404857,184.39710363723333L12.420246107152282,178.03841577426667L14.93608141989971,184.52545231525L17.208448799155452,181.8112934045L19.720902612826603,178.98189866415L22.155581947743467,181.4422888497L24.671417260490895,174.14528387296667L27.106096595407756,182.78285458836666L29.621931908155183,187.45831789553333L32.13776722090261,184.7040345939L34.57244655581948,184.12160284556666L37.08828186856691,179.30250056871668L39.526342702560044,180.32542928686667L42.042178015307464,160.71850555631667L44.55801332805489,165.90469333573333L46.83038070731063,157.15296402776664L49.34283452098179,169.6448703495L51.777513855898654,165.24478914203334L54.29334916864608,171.0511096653L56.72802850356294,175.38502301858333L59.243863816310366,176.1029760587L61.75969912905779,170.68540028298332L64.19437846397467,167.86005309781666L66.71021377672209,165.23131758303333L69.14827461071523,163.14216147153334L71.66410992346266,162.95741996068332L74.17994523621009,161.14311354735L76.45231261546583,159.32212957706668L78.96476642913699,161.71088346029998L81.39944576405384,157.12140926835L83.91528107680126,166.42684636301667L86.34996041171813,164.3981024377833L88.86579572446556,164.54024171861667L91.38163103721298,163.5630873275L93.81631037212985,158.87522084223335L96.33214568487728,151.98715412293336L98.77020651887042,151.6446171042833L101.28604183161785,154.05972767401664L103.80187714436528,152.15227856573333L106.15540050145157,144.94031551796667L108.66785431512271,144.00848411303335L111.10253365003959,148.50632332245L113.61836896278702,158.02298638924998L116.05304829770388,155.5093971970167L118.56888361045131,154.89070319921666L121.08471892319874,152.8741222604L123.51939825811559,149.16375994991668L126.03523357086301,145.97499739651667L128.47329440485615,146.319365518L130.9891297176036,154.20336848198335L133.504965030351,150.1285707402L135.77733240960674,146.56032558751662L138.28978622327793,141.5239972082L140.72446555819477,146.41521435445003L143.2403008709422,152.67017436836667L145.67498020585907,156.08469219643334L148.19081551860648,151.8771988822L150.70665083135393,135.706085888L153.1413301662708,130.08528397749998L155.65716547901823,122.05211615238335L158.09522631301135,123.61967841525001L160.6110616257588,134.61810222546669L163.1268969385062,128.68422364139997L165.39926431776195,123.06766495719998L167.9117181314331,120.53823899436665L170.34639746634997,129.50169768016664L172.86223277909738,136.2381877821333L175.29691211401425,135.93065748543336L177.81274742676166,138.9335101810333L180.3285827395091,131.7081476914L182.76326207442597,126.71158612144998L185.2790973871734,120.76239264728335L187.71715822116653,123.44089220613333L190.23299353391397,133.0425511292167L192.74882884666138,133.11322126541668L195.02119622591712,125.43947037461666L197.53365003958828,124.86280124076666L199.96832937450515,132.42827258046665L202.48416468725256,140.56363883116666L204.91884402216945,139.46426854561668L207.43467933491686,141.9154366885L209.9505146476643,140.0242413258L212.38519398258117,133.00921924518335L214.9010292953286,132.5783591643833L217.3390901293217,138.90143974906667L219.85492544206915,145.76621874166662L222.37076075481656,140.90690285935L224.72428411190288,134.2105131627L227.23673792557403,133.68080990214997L229.6714172604909,148.88238424694998L232.18725257323834,154.85359510026666L234.6219319081552,157.95827132195L237.13776722090262,159.55123756651668L239.65360253365006,156.08329264013332L242.0882818685669,152.94992468073335L244.6041171813143,149.8000341756333L247.04217801530746,156.47465681426667L249.5580133280549,161.3213024566333L252.0738486408023,160.10500048984997L254.34621602005808,155.54097638175L256.8586698337292,149.98549856681666L259.2933491686461,152.66402275281666L261.8091844813935,161.99196659796667L264.24386381631035,167.63929602301667L266.75969912905776,169.56579476556666L269.27553444180523,167.6563382152833L271.71021377672207,161.46304988993333L274.2260490894695,158.85932528068335L276.66410992346266,161.39179995046666L279.1799452362101,170.43380433049998L281.69578054895754,167.7416233429333L283.9681479282132,167.96221984685L286.4806017418844,160.24941252533333L288.91528107680125,164.6340679301167L291.43111638954866,171.28010305453333L293.86579572446556,175.88618782431666L296.38163103721297,179.53014411188332L298.89746634996044,174.60140324773334L301.3321456848773,168.54537152188334L303.8479809976247,167.96680385575L306.2860418316178,166.5859180555L308.8018771443653,175.38253794845002L311.3177124571127,173.24908647991666L313.59007983636843,173.72084534344998L316.10253365003956,177.14709100958333L318.53721298495645,176.1520029834333L321.05304829770387,180.23557442406664L323.48772763262076,178.99439242306667L326.0035629453682,188.09206959436665L328.5193982581156,180.58990144438334L330.9540775930324,176.10999080168332L333.4699129057799,182.67024918508332L335.907973739773,185.13111528076666L338.4238090525204,185.62598019293333L340.9396443652679,183.4124740646L343.2931677223542,180.77832121385L345.80562153602534,183.82274759984998L348.24030087094224,191.52471447228334L350.75613618368965,193.91180041515L353.1908155186065,194.0883654280833L355.7066508313539,194.31486054143332L358.2224861441013,193.61550418551667L360.6571654790182,193.82143212969999L363.1730007917656,194.14471620026666L365.6110616257588,201.6759860623L368.1268969385062,203.2375077172333L370.6427322512536,202.82523096723332L372.91509963050936,202.0517020801333L375.42755344418055,202.01947784783334L377.8622327790974,199.90256999808332L380.3780680918448,200.83854825035002L382.8127474267617,206.80344645856667L385.3285827395091,208.82799975978332L387.8444180522565,208.29816359494998L390.2790973871734,208.75435746921664L392.7949326999208,203.17143522078334L395.232993533914,205.71817392048334L397.7488288466614,208.6712354845L400.2646641594088,211.60731659856668L402.53703153866456,209.74146661769998L405.0494853523357,205.61555075594998L407.4841646872526,207.48797694568333L410,213.03903250694998" data-legend="java" style="stroke: rgb(44, 160, 44); fill: none;"></path><path class="line" d="M2.5158353127474267,261.6636528029L4.950514647664291,264.91837443558336L7.466349960411718,265.56583705595L9.904410794404857,273.58047471275L12.420246107152282,266.10997790243334L14.93608141989971,268.28043544925L17.208448799155452,264.58456875536666L19.720902612826603,263.8763734092167L22.155581947743467,268.6458945718333L24.671417260490895,270.21895027756665L27.106096595407756,271.98224329186667L29.621931908155183,272.72652422708336L32.13776722090261,270.8318035328333L34.57244655581948,264.1064117527333L37.08828186856691,258.0467916076167L39.526342702560044,262.1283004072333L42.042178015307464,263.35681488461665L44.55801332805489,261.2263570775167L46.83038070731063,264.17568706145L49.34283452098179,260.37338272401666L51.777513855898654,261.83551462273334L54.29334916864608,265.21000506036665L56.72802850356294,264.4785215116167L59.243863816310366,264.0247952180667L61.75969912905779,262.2969519485L64.19437846397467,262.1218095313333L66.71021377672209,259.6609108205167L69.14827461071523,264.63441093513336L71.66410992346266,269.41799873396667L74.17994523621009,266.9532737481667L76.45231261546583,264.9841108554333L78.96476642913699,264.3113562735333L81.39944576405384,269.6059787141833L83.91528107680126,270.24201584166667L86.34996041171813,272.45742286583334L88.86579572446556,271.54783520206666L91.38163103721298,268.62671856775L93.81631037212985,264.7641273106167L96.33214568487728,266.30564476305L98.77020651887042,267.72291962621665L101.28604183161785,267.8931400882833L103.80187714436528,267.5242320229833L106.15540050145157,265.87137344291665L108.66785431512271,265.39716124483334L111.10253365003959,269.12935583173333L113.61836896278702,270.47420296971666L116.05304829770388,272.0336963881L118.56888361045131,272.56033292358336L121.08471892319874,267.98086958285L123.51939825811559,264.77282890618335L126.03523357086301,263.8567036589333L128.47329440485615,268.2808518857L130.9891297176036,269.09600769356666L133.504965030351,266.14887922236665L135.77733240960674,266.8215060738833L138.28978622327793,265.56187035311666L140.72446555819477,267.884072674L143.2403008709422,268.92633826446666L145.67498020585907,271.42927560796664L148.19081551860648,270.4324705947167L150.70665083135393,265.71231082655L153.1413301662708,261.53148248956666L155.65716547901823,259.3470505048333L158.09522631301135,264.62891189678334L160.6110616257588,266.9466418036L163.1268969385062,264.63330414291664L165.39926431776195,263.28108258776666L167.9117181314331,265.5189030760333L170.34639746634997,269.06238737458335L172.86223277909738,271.47587171341667L175.29691211401425,273.2339705838L177.81274742676166,272.60293599915L180.3285827395091,267.4358338824667L182.76326207442597,263.18347273855L185.2790973871734,263.15604439758334L187.71715822116653,266.01191361658334L190.23299353391397,267.5999967691L192.74882884666138,266.4951585305L195.02119622591712,265.40583887971667L197.53365003958828,265.09274724498334L199.96832937450515,268.18738551253335L202.48416468725256,271.7144877536667L204.91884402216945,275.85225321741666L207.43467933491686,276.2327525617L209.9505146476643,270.897193368L212.38519398258117,266.8863439931L214.9010292953286,265.9790941816167L217.3390901293217,269.9849584265L219.85492544206915,271.75439767435L222.37076075481656,270.77900081655L224.72428411190288,271.27715050673334L227.23673792557403,271.33104869625L229.6714172604909,275.86482171368334L232.18725257323834,279.03420552498335L234.6219319081552,277.704409509L237.13776722090262,279.50497339811665L239.65360253365006,275.39776393228334L242.0882818685669,269.22944071846666L244.6041171813143,268.64674112346665L247.04217801530746,271.00466703573335L249.5580133280549,273.7490838830167L252.0738486408023,273.8171116605167L254.34621602005808,275.21818679595L256.8586698337292,273.13468253161665L259.2933491686461,275.26515786835L261.8091844813935,277.80244173141665L264.24386381631035,280.82257937711665L266.75969912905776,280.6117725620667L269.27553444180523,278.19526086813335L271.71021377672207,272.4647055681833L274.2260490894695,270.6288804725L276.66410992346266,274.5817446923833L279.1799452362101,276.73349620936665L281.69578054895754,276.42484539801666L283.9681479282132,275.98339573563334L286.4806017418844,277.34026284053334L288.91528107680125,276.2099950169667L291.43111638954866,279.95676950285L293.86579572446556,283.10514722808335L296.38163103721297,282.0926068048167L298.89746634996044,278.4997555195333L301.3321456848773,274.2435624688333L303.8479809976247,271.54680674393336L306.2860418316178,271.98074298945L308.8018771443653,274.14688100101665L311.3177124571127,276.2969217141L313.59007983636843,275.0252789071167L316.10253365003956,273.26939125113336L318.53721298495645,276.61939183621666L321.05304829770387,278.56153362135L323.48772763262076,280.36900897035L326.0035629453682,280.8886588792L328.5193982581156,275.23144889851665L330.9540775930324,272.61506757235L333.4699129057799,271.42623330925L335.907973739773,272.7065631372167L338.4238090525204,276.4638887166833L340.9396443652679,277.01205445625L343.2931677223542,273.16245288065L345.80562153602534,270.0887954393833L348.24030087094224,269.5713656991667L350.75613618368965,274.6014961030833L353.1908155186065,278.72849287471666L355.7066508313539,278.4933802239L358.2224861441013,274.2951670636L360.6571654790182,271.68808740991665L363.1730007917656,266.29613582148335L365.6110616257588,266.73615448875L368.1268969385062,269.0830865025L370.6427322512536,271.32380354125L372.91509963050936,271.8294287139167L375.42755344418055,271.5937787172667L377.8622327790974,273.6638439517167L380.3780680918448,275.6160364550167L382.8127474267617,279.51979997795L385.3285827395091,281.39370504345L387.8444180522565,278.85079031258334L390.2790973871734,274.05702941708336L392.7949326999208,272.62518482996666L395.232993533914,271.6777896624L397.7488288466614,275.50209404151667L400.2646641594088,278.25452422651665L402.53703153866456,276.61736391663334L405.0494853523357,277.5137988961L407.4841646872526,277.5210988229667L410,279.77030406128335" data-legend="c" style="stroke: rgb(214, 39, 40); fill: none;"></path><path class="line" d="M2.5158353127474267,209.22242314648332L4.950514647664291,206.3332175524L7.466349960411718,202.41437991916666L9.904410794404857,211.79512986106667L12.420246107152282,209.59119496856667L14.93608141989971,219.3115608709L17.208448799155452,213.52045858866666L19.720902612826603,219.45300766738333L22.155581947743467,220.63492063493334L24.671417260490895,225.5473756939L27.106096595407756,223.84784122924998L29.621931908155183,227.9568564489L32.13776722090261,225.49871496758334L34.57244655581948,221.91407769688334L37.08828186856691,223.48679720721665L39.526342702560044,226.35068302725L42.042178015307464,225.29277157088333L44.55801332805489,214.65298714544997L46.83038070731063,221.69461220343334L49.34283452098179,216.48547806948332L51.777513855898654,221.79673614478332L54.29334916864608,214.90758813466667L56.72802850356294,225.92101922080002L59.243863816310366,230.52700380573333L61.75969912905779,225.0600506729L64.19437846397467,222.90303078096667L66.71021377672209,218.71974568311666L69.14827461071523,224.39912248981668L71.66410992346266,226.82538285145L74.17994523621009,230.43007231878335L76.45231261546583,230.61574170926667L78.96476642913699,227.09920322215L81.39944576405384,235.27508090614998L83.91528107680126,235.67073685633335L86.34996041171813,236.00547859591666L88.86579572446556,238.33804416326666L91.38163103721298,235.3694019581L93.81631037212985,228.22627429264998L96.33214568487728,231.24633840360002L98.77020651887042,229.77641196121667L101.28604183161785,234.6072553164L103.80187714436528,231.1222286985L106.15540050145157,234.5795093275833L108.66785431512271,231.18326410173333L111.10253365003959,237.96032444638334L113.61836896278702,240.5392134297L116.05304829770388,237.7451917066L118.56888361045131,238.87953311116667L121.08471892319874,237.8236110689L123.51939825811559,233.90573293981666L126.03523357086301,229.04911322711666L128.47329440485615,229.65331788233334L130.9891297176036,235.7771423222L133.504965030351,233.60098826436666L135.77733240960674,230.7373599302L138.28978622327793,230.42969948993334L140.72446555819477,231.30955687871665L143.2403008709422,234.51654720146666L145.67498020585907,237.6923120674L148.19081551860648,238.57387555876667L150.70665083135393,233.80950071143332L153.1413301662708,227.64471057884998L155.65716547901823,222.92147696555003L158.09522631301135,229.15673465923334L160.6110616257588,231.89219629073332L163.1268969385062,231.71397651951668L165.39926431776195,230.20344439234998L167.9117181314331,230.04820641501667L170.34639746634997,235.66835486258333L172.86223277909738,241.66640959991668L175.29691211401425,240.82404638943333L177.81274742676166,239.83289530781667L180.3285827395091,237.6424430379L182.76326207442597,233.80188971500002L185.2790973871734,234.16704334288335L187.71715822116653,234.47079697913335L190.23299353391397,238.10781557946666L192.74882884666138,235.5300716908L195.02119622591712,234.71533341813333L197.53365003958828,236.84880299054998L199.96832937450515,238.42515815983333L202.48416468725256,241.81291562203333L204.91884402216945,242.48492589998332L207.43467933491686,245.70524913995L209.9505146476643,244.19208796355L212.38519398258117,236.53666090465L214.9010292953286,233.29492566988333L217.3390901293217,236.17547075455L219.85492544206915,243.4717154638L222.37076075481656,241.5580016331L224.72428411190288,241.52134470918332L227.23673792557403,241.15949601385L229.6714172604909,245.58275678553332L232.18725257323834,247.86365941118333L234.6219319081552,248.02447382976666L237.13776722090262,253.59703909323332L239.65360253365006,249.60905095576666L242.0882818685669,242.70938276581666L244.6041171813143,241.63263503693332L247.04217801530746,245.82423665666667L249.5580133280549,246.25129684094998L252.0738486408023,250.3524028515L254.34621602005808,248.07421355929998L256.8586698337292,244.65914098783333L259.2933491686461,252.2075598623L261.8091844813935,255.75588726056668L264.24386381631035,252.9877092295L266.75969912905776,254.58374120701666L269.27553444180523,253.60914615921666L271.71021377672207,248.40099459383333L274.2260490894695,249.86997056915L276.66410992346266,248.39955274983333L279.1799452362101,250.08773476396667L281.69578054895754,249.75985010425L283.9681479282132,249.5232699186L286.4806017418844,251.68616626673332L288.91528107680125,252.92231277428334L291.43111638954866,255.27390231655L293.86579572446556,258.6709664067L296.38163103721297,258.40794747165L298.89746634996044,256.26256033053335L301.3321456848773,254.64215596533333L303.8479809976247,251.00229250155002L306.2860418316178,254.5533528561L308.8018771443653,255.84839170076668L311.3177124571127,256.9422913667833L313.59007983636843,253.59589831376667L316.10253365003956,251.83426141831666L318.53721298495645,253.97570828505L321.05304829770387,254.72305331513334L323.48772763262076,252.37584180731668L326.0035629453682,259.4484696140833L328.5193982581156,253.33980328388333L330.9540775930324,246.5015389514L333.4699129057799,246.25085812228332L335.907973739773,246.59537575195L338.4238090525204,251.35487633783333L340.9396443652679,252.48074861098334L343.2931677223542,249.91546550045L345.80562153602534,242.70698240831666L348.24030087094224,242.10082032856667L350.75613618368965,244.86546821761667L353.1908155186065,247.5964919748L355.7066508313539,245.75162064908332L358.2224861441013,253.34388621898333L360.6571654790182,248.55937792075L363.1730007917656,246.08875807425L365.6110616257588,244.12125499523333L368.1268969385062,250.64584399331667L370.6427322512536,247.57592935901667L372.91509963050936,251.31917697256665L375.42755344418055,251.21915165671666L377.8622327790974,247.20245653846666L380.3780680918448,250.10065700151665L382.8127474267617,255.49754262113333L385.3285827395091,260.02707210141665L387.8444180522565,253.81751524023332L390.2790973871734,252.12720485568332L392.7949326999208,251.26836251825L395.232993533914,251.59111566410002L397.7488288466614,253.8240053303L400.2646641594088,257.70091457483335L402.53703153866456,257.24127185515L405.0494853523357,253.68370530358334L407.4841646872526,254.07146466065L410,257.85576842635" data-legend="c++" style="stroke: rgb(148, 103, 189); fill: none;"></path><path class="line" d="M2.5158353127474267,299.2766726944L4.950514647664291,300L7.466349960411718,299.86704956393334L9.904410794404857,299.86021415193335L12.420246107152282,299.15009348971665L14.93608141989971,299.13753449863333L17.208448799155452,299.6705541279667L19.720902612826603,299.05145838275L22.155581947743467,299.86935789405L24.671417260490895,299.7021895027833L27.106096595407756,297.3489692168667L29.621931908155183,297.58140875221665L32.13776722090261,292.96291763555L34.57244655581948,296.61905555865L37.08828186856691,295.88779813465L39.526342702560044,296.4356047442167L42.042178015307464,296.48524550935L44.55801332805489,295.4251601194L46.83038070731063,295.5300004502167L49.34283452098179,294.6314489719333L51.777513855898654,295.5081596380833L54.29334916864608,294.69866743778334L56.72802850356294,293.54154936575L59.243863816310366,292.54140442983334L61.75969912905779,293.52878593443336L64.19437846397467,294.3747864259L66.71021377672209,294.1719047275167L69.14827461071523,294.6240447433833L71.66410992346266,294.75976674675L74.17994523621009,293.4917150745667L76.45231261546583,292.99350155571665L78.96476642913699,291.6644777165L81.39944576405384,292.89360424383335L83.91528107680126,292.5013933222L86.34996041171813,292.4536330604167L88.86579572446556,290.8435193331333L91.38163103721298,289.97365627335L93.81631037212985,289.7654457717L96.33214568487728,290.6907266141L98.77020651887042,290.1107148954667L101.28604183161785,290.0789371522333L103.80187714436528,289.03082701898336L106.15540050145157,288.890388499L108.66785431512271,289.0966701412167L111.10253365003959,289.13373217758334L113.61836896278702,287.5452029850667L116.05304829770388,286.78943060088335L118.56888361045131,287.10323804651665L121.08471892319874,286.5995886149833L123.51939825811559,285.8465253555167L126.03523357086301,284.77521654283333L128.47329440485615,284.9699274743333L130.9891297176036,283.96822154706666L133.504965030351,281.86429763579997L135.77733240960674,282.16064685031665L138.28978622327793,282.0526806609L140.72446555819477,282.09519438641667L143.2403008709422,281.19058512531666L145.67498020585907,281.3351837001L148.19081551860648,281.130665471L150.70665083135393,282.69952140733335L153.1413301662708,281.05606967883335L155.65716547901823,279.2517354989667L158.09522631301135,280.72230208265L160.6110616257588,279.20994239348335L163.1268969385062,276.69215489438335L165.39926431776195,277.3547878793833L167.9117181314331,276.47334190413335L170.34639746634997,275.49270661431666L172.86223277909738,275.33187319411667L175.29691211401425,275.10268490835L177.81274742676166,274.66001850351665L180.3285827395091,276.18140819868336L182.76326207442597,273.10641263941665L185.2790973871734,272.82908944805L187.71715822116653,274.5601383238667L190.23299353391397,272.8502310103167L192.74882884666138,270.4193284291333L195.02119622591712,268.5234643266L197.53365003958828,270.58069761483335L199.96832937450515,269.0454770447L202.48416468725256,269.3662902408L204.91884402216945,265.8257447773L207.43467933491686,267.67839307513333L209.9505146476643,268.55613075213336L212.38519398258117,266.86833765486665L214.9010292953286,266.6757037639667L217.3390901293217,269.0703996232833L219.85492544206915,267.19357183116665L222.37076075481656,267.97991791735L224.72428411190288,266.30396571918334L227.23673792557403,264.76570517255L229.6714172604909,266.27638814973335L232.18725257323834,264.76214447521664L234.6219319081552,264.41829036728336L237.13776722090262,264.9965301873833L239.65360253365006,267.64153885075L242.0882818685669,263.67404507643334L244.6041171813143,265.84357162195L247.04217801530746,267.34526319718333L249.5580133280549,266.7913537591833L252.0738486408023,264.6732709785L254.34621602005808,261.5794253357167L256.8586698337292,259.82914675075L259.2933491686461,261.07170489161666L261.8091844813935,258.02094422675L264.24386381631035,257.1152067867L266.75969912905776,256.65156585548334L269.27553444180523,256.18295639468334L271.71021377672207,255.08700717856667L274.2260490894695,255.12690314898333L276.66410992346266,256.98805249403335L279.1799452362101,255.94371542033332L281.69578054895754,250.46358606251667L283.9681479282132,250.3215518601L286.4806017418844,250.96088889995L288.91528107680125,252.44008294353333L291.43111638954866,251.01635335473333L293.86579572446556,253.47579917933334L296.38163103721297,256.24413746056666L298.89746634996044,256.04030535494996L301.3321456848773,254.14764919901666L303.8479809976247,252.25459402866667L306.2860418316178,256.5592914565L308.8018771443653,255.38470933901667L311.3177124571127,250.94443214115L313.59007983636843,252.86165619848333L316.10253365003956,249.37918491461664L318.53721298495645,252.09990018021668L321.05304829770387,250.91784988598334L323.48772763262076,253.01306645918334L326.0035629453682,251.31598403076669L328.5193982581156,251.37659310185L330.9540775930324,251.52082006651668L333.4699129057799,251.24046972818334L335.907973739773,252.44306133968334L338.4238090525204,252.36520696853333L340.9396443652679,245.64586727566666L343.2931677223542,244.76144881781667L345.80562153602534,243.22205850161666L348.24030087094224,245.76235723615L350.75613618368965,246.78455332316668L353.1908155186065,249.92733839635002L355.7066508313539,249.01672686706667L358.2224861441013,243.45649786803332L360.6571654790182,239.86535532815L363.1730007917656,240.12490475266668L365.6110616257588,245.52606295045L368.1268969385062,247.83521549353333L370.6427322512536,244.66489962055L372.91509963050936,241.52660353391667L375.42755344418055,240.8101069976L377.8622327790974,241.32910552246668L380.3780680918448,244.24850575071667L382.8127474267617,246.37888982855L385.3285827395091,247.29948858676667L387.8444180522565,248.8084918932L390.2790973871734,244.06529317338334L392.7949326999208,245.96735709031668L395.232993533914,250.87552790291667L397.7488288466614,249.50504473635L400.2646641594088,247.24168126095L402.53703153866456,243.40756569063333L405.0494853523357,242.64458843293335L407.4841646872526,243.1828814162L410,246.75906559953333" data-legend="r" style="stroke: rgb(140, 86, 75); fill: none;"></path><path class="line" d="M2.5158353127474267,298.67389993973336L4.950514647664291,297.5686002084167L7.466349960411718,298.53754520315L9.904410794404857,298.18278397496664L12.420246107152282,297.9814720380833L14.93608141989971,297.4126034958667L17.208448799155452,298.10568623576665L19.720902612826603,297.4705556873L22.155581947743467,297.25651577505L24.671417260490895,297.4388297238833L27.106096595407756,297.9727411658333L29.621931908155183,298.2503807994833L32.13776722090261,297.39933912618335L34.57244655581948,296.7579984809L37.08828186856691,294.8816210824833L39.526342702560044,295.4999509895667L42.042178015307464,296.5600275197833L44.55801332805489,295.8376456824167L46.83038070731063,296.07669104265L49.34283452098179,293.7926128738L51.777513855898654,293.3430279528333L54.29334916864608,295.6023036699833L56.72802850356294,295.83236732576665L59.243863816310366,296.31023540698334L61.75969912905779,295.4756342338333L64.19437846397467,295.74166075231665L66.71021377672209,296.2430460227L69.14827461071523,295.6847713411L71.66410992346266,296.2899148567L74.17994523621009,294.17892528408333L76.45231261546583,292.8606769406667L78.96476642913699,293.3280798529167L81.39944576405384,294.94545090581664L83.91528107680126,294.730708821L86.34996041171813,295.27936517435L88.86579572446556,296.0223124871333L91.38163103721298,295.6421447201167L93.81631037212985,293.40769453895L96.33214568487728,293.37461927066664L98.77020651887042,293.75074491765L101.28604183161785,293.42909315735L103.80187714436528,292.5118191827L106.15540050145157,292.81436826426665L108.66785431512271,291.96187335025L111.10253365003959,293.29872041616665L113.61836896278702,293.4017707806L116.05304829770388,293.46548620793334L118.56888361045131,292.9417170576L121.08471892319874,293.02114681176664L123.51939825811559,291.55934174046666L126.03523357086301,290.4915850527833L128.47329440485615,291.68022344543334L130.9891297176036,292.30857609723336L133.504965030351,291.1402275286L135.77733240960674,290.45285699945L138.28978622327793,289.7848863238833L140.72446555819477,289.81469180385L143.2403008709422,290.51056546863333L145.67498020585907,290.6154554916667L148.19081551860648,291.02256257166664L150.70665083135393,290.9960710128167L153.1413301662708,289.96552349846667L155.65716547901823,288.62589428906665L158.09522631301135,289.34520524128334L160.6110616257588,290.16279642213334L163.1268969385062,289.01799127135L165.39926431776195,288.5766948463167L167.9117181314331,287.86664670258335L170.34639746634997,288.10675468048333L172.86223277909738,289.41913193695L175.29691211401425,289.5521880946L177.81274742676166,290.5640295073667L180.3285827395091,289.19901420855L182.76326207442597,288.10215303595L185.2790973871734,287.67515443725L187.71715822116653,289.2527364020833L190.23299353391397,289.78223643825L192.74882884666138,288.16773137165L195.02119622591712,287.8121158167L197.53365003958828,286.54082381116666L199.96832937450515,287.4267009180833L202.48416468725256,289.10722066271666L204.91884402216945,290.36837117311666L207.43467933491686,290.5948285429L209.9505146476643,291.1738163474167L212.38519398258117,290.4926534140167L214.9010292953286,289.46613347793334L217.3390901293217,291.5062783489L219.85492544206915,291.38819673105L222.37076075481656,290.4617238785L224.72428411190288,289.71208842106665L227.23673792557403,290.50629128953335L229.6714172604909,289.96806812135L232.18725257323834,291.0263846179167L234.6219319081552,291.54174103283333L237.13776722090262,291.3578533426L239.65360253365006,291.72407842123334L242.0882818685669,291.45102328661665L244.6041171813143,292.56008094633336L247.04217801530746,292.4531274944667L249.5580133280549,292.4997382523L252.0738486408023,291.87427603258334L254.34621602005808,291.03547747351666L256.8586698337292,291.11080978263334L259.2933491686461,291.05469799686665L261.8091844813935,292.4781233248167L264.24386381631035,293.17699383403334L266.75969912905776,293.1989437020667L269.27553444180523,294.01173989573334L271.71021377672207,293.14584804553334L274.2260490894695,292.5626351569333L276.66410992346266,294.23575084555L279.1799452362101,293.9761059198L281.69578054895754,294.13919897255L283.9681479282132,294.52884815705L286.4806017418844,293.74189243515L288.91528107680125,294.71556477151665L291.43111638954866,295.02194275235L293.86579572446556,295.1321705451L296.38163103721297,295.70435746568336L298.89746634996044,294.9817166038667L301.3321456848773,294.5604255704333L303.8479809976247,294.41541210875L306.2860418316178,294.65934818495L308.8018771443653,295.419723012L311.3177124571127,295.90530764405L313.59007983636843,295.2798721160167L316.10253365003956,294.6494745255667L318.53721298495645,294.91968638275L321.05304829770387,295.56059599931666L323.48772763262076,295.7406562743167L326.0035629453682,296.09394253045L328.5193982581156,296.2834826114L330.9540775930324,295.2128882756833L333.4699129057799,295.465022709L335.907973739773,296.33884032768333L338.4238090525204,296.28014631425L340.9396443652679,296.1590055653833L343.2931677223542,296.7544790345833L345.80562153602534,296.0449514265L348.24030087094224,296.67214995346666L350.75613618368965,297.07241608898335L353.1908155186065,296.85842438836664L355.7066508313539,297.4037870697333L358.2224861441013,297.1359848647L360.6571654790182,296.27568472841665L363.1730007917656,295.8414884981167L365.6110616257588,296.4252654710833L368.1268969385062,296.60082108788333L370.6427322512536,296.3101421297667L372.91509963050936,296.64931530958336L375.42755344418055,296.3537547703L377.8622327790974,297.25743310766666L380.3780680918448,297.43805823021665L382.8127474267617,297.2178303979667L385.3285827395091,297.73629186128335L387.8444180522565,296.90932601993336L390.2790973871734,297.19792171278334L392.7949326999208,296.3915550634667L395.232993533914,296.98699890026666L397.7488288466614,296.9541214544167L400.2646641594088,297.1662774859L402.53703153866456,297.08412629518335L405.0494853523357,296.85625149988334L407.4841646872526,296.4796309811333L410,297.2229193972833" data-legend="matlab" style="stroke: rgb(227, 119, 194); fill: none;"></path><path class="line" d="M2.5158353127474267,265.40084388186665L4.950514647664291,271.4021072131667L7.466349960411718,278.8608806637L9.904410794404857,277.63426430708336L12.420246107152282,278.0086690464167L14.93608141989971,272.496933456L17.208448799155452,272.82071555645L19.720902612826603,271.70184175165L22.155581947743467,273.8062577568833L24.671417260490895,274.32873513926666L27.106096595407756,274.00950212603334L29.621931908155183,275.09365608661665L32.13776722090261,275.6761718272L34.57244655581948,277.167046444L37.08828186856691,271.38957425586665L39.526342702560044,274.4700189804167L42.042178015307464,274.42455242968333L44.55801332805489,274.2009029684L46.83038070731063,277.6500022510833L49.34283452098179,274.76781016805L51.777513855898654,274.9555663273667L54.29334916864608,274.30660979783335L56.72802850356294,274.85620287263333L59.243863816310366,273.7763159282L61.75969912905779,274.36192732498336L64.19437846397467,275.68540861656663L66.71021377672209,277.62685740433335L69.14827461071523,275.3622140257L71.66410992346266,274.7839975853167L74.17994523621009,274.71470670273334L76.45231261546583,272.80416006695L78.96476642913699,274.15287628055L81.39944576405384,273.87648883996667L83.91528107680126,273.68732161255L86.34996041171813,273.67082547946666L88.86579572446556,271.00187809246665L91.38163103721298,274.6392482208167L93.81631037212985,273.3670859373L96.33214568487728,273.3297752585L98.77020651887042,272.8769444364L101.28604183161785,272.58048282506667L103.80187714436528,272.39492260865L106.15540050145157,272.5946253974L108.66785431512271,274.45950080641666L111.10253365003959,275.40792019136666L113.61836896278702,275.8576419258667L116.05304829770388,275.7019884266L118.56888361045131,275.6039213735833L121.08471892319874,275.2130386762833L123.51939825811559,274.76746265988334L126.03523357086301,275.8893763838167L128.47329440485615,276.43968038193333L130.9891297176036,275.46829388686666L133.504965030351,275.7314514256833L135.77733240960674,275.3067828155333L138.28978622327793,275.9627133688L140.72446555819477,276.4590554636333L143.2403008709422,276.46704963313334L145.67498020585907,276.87989489311667L148.19081551860648,275.6144087379167L150.70665083135393,275.8581522442167L153.1413301662708,274.70513518418335L155.65716547901823,275.59306482861666L158.09522631301135,275.26348882865L160.6110616257588,275.5442337695L163.1268969385062,276.79894914458333L165.39926431776195,276.2752935982833L167.9117181314331,276.3786845379833L170.34639746634997,274.59170318101667L172.86223277909738,275.96939877225L175.29691211401425,275.82940714566666L177.81274742676166,274.75212667535L180.3285827395091,277.07813183248334L182.76326207442597,277.31761152416664L185.2790973871734,278.75546180503335L187.71715822116653,276.87775284096665L190.23299353391397,275.47534813091664L192.74882884666138,277.5007619264L195.02119622591712,278.26493987311665L197.53365003958828,277.87145293708335L199.96832937450515,277.3915462628833L202.48416468725256,276.9912357769L204.91884402216945,277.8094826047L207.43467933491686,278.5817334369167L209.9505146476643,279.61009979725L212.38519398258117,280.26505329876665L214.9010292953286,281.58691428313335L217.3390901293217,280.2591509391833L219.85492544206915,280.12518169145L222.37076075481656,279.96962014485L224.72428411190288,281.18186861796664L227.23673792557403,281.10649516521664L229.6714172604909,281.1247117261L232.18725257323834,280.76691581218336L234.6219319081552,281.94304265435L237.13776722090262,282.60467268101667L239.65360253365006,281.13403659056667L242.0882818685669,282.5278489393L244.6041171813143,283.13298351315L247.04217801530746,283.13356927676665L249.5580133280549,282.6580242330833L252.0738486408023,284.3824737931L254.34621602005808,285.06747597776666L256.8586698337292,285.98822558958335L259.2933491686461,286.30250630771667L261.8091844813935,286.63616389953336L264.24386381631035,285.7643451598833L266.75969912905776,286.79627563913334L269.27553444180523,287.31775763011666L271.71021377672207,287.16206459321666L274.2260490894695,288.32124637093335L276.66410992346266,288.21685614611664L279.1799452362101,287.81578218271665L281.69578054895754,288.6632535472833L283.9681479282132,289.6612753430333L286.4806017418844,289.7632280230667L288.91528107680125,289.61196572955L291.43111638954866,289.18145892011665L293.86579572446556,290.0637147135167L296.38163103721297,290.641255223L298.89746634996044,290.88754600093336L301.3321456848773,290.5622857575833L303.8479809976247,290.59081555291664L306.2860418316178,289.6892200604167L308.8018771443653,289.6519668048667L311.3177124571127,290.93400509356667L313.59007983636843,291.15762709731666L316.10253365003956,291.55585794465003L318.53721298495645,291.52536695496667L321.05304829770387,291.2579803572L323.48772763262076,291.5260300680667L326.0035629453682,290.40120262211667L328.5193982581156,291.1346860962833L330.9540775930324,290.60266751575L333.4699129057799,292.22575321541666L335.907973739773,291.52085589778335L338.4238090525204,291.2284931607667L340.9396443652679,292.42244904591666L343.2931677223542,292.33366974615L345.80562153602534,292.9360992919667L348.24030087094224,293.72307958703334L350.75613618368965,293.98817216935L353.1908155186065,292.9263878163667L355.7066508313539,293.7305425745L358.2224861441013,293.8798016818167L360.6571654790182,294.1525878060833L363.1730007917656,293.76223274716665L365.6110616257588,293.715992986L368.1268969385062,293.71812519068334L370.6427322512536,293.2331326255L372.91509963050936,294.38168021608334L375.42755344418055,293.6067524519833L377.8622327790974,294.9907454021333L380.3780680918448,294.52498738536667L382.8127474267617,294.16602321335L385.3285827395091,294.1559371520833L387.8444180522565,294.008118644L390.2790973871734,294.38397021248335L392.7949326999208,294.7342562489667L395.232993533914,294.5765980204667L397.7488288466614,294.32467161623333L400.2646641594088,294.4541739638167L402.53703153866456,294.12373543455L405.0494853523357,294.07247420206664L407.4841646872526,294.12881977583334L410,294.2366862805333" data-legend="ruby" style="stroke: rgb(127, 127, 127); fill: none;"></path><path class="line" d="M2.5158353127474267,284.32790837855L4.950514647664291,285.2958203079833L7.466349960411718,287.1038077005L9.904410794404857,281.40848220526664L12.420246107152282,284.27672955975L14.93608141989971,284.28396197486666L17.208448799155452,288.63411741451665L19.720902612826603,287.2737333017167L22.155581947743467,287.19707361683334L24.671417260490895,285.34772353656666L27.106096595407756,286.5889030970333L29.621931908155183,287.18661232556667L32.13776722090261,287.3026557337L34.57244655581948,286.93936530873333L37.08828186856691,285.86977444136664L39.526342702560044,288.371160478L42.042178015307464,288.7079164236333L44.55801332805489,286.98795542156665L46.83038070731063,287.39395810421667L49.34283452098179,287.7865464111333L51.777513855898654,290.75779608985L54.29334916864608,287.6804260343667L56.72802850356294,287.9939058722333L59.243863816310366,285.58356262585L61.75969912905779,287.3866166518667L64.19437846397467,286.88326367531664L66.71021377672209,288.8013871830167L69.14827461071523,287.9221812396167L71.66410992346266,289.98067401976664L74.17994523621009,290.25778467683335L76.45231261546583,289.97174156315L78.96476642913699,290.3511076088L81.39944576405384,290.3079438161167L83.91528107680126,290.4240766074L86.34996041171813,289.0627545236667L88.86579572446556,290.43795119456666L91.38163103721298,291.80854270698336L93.81631037212985,290.86965693643333L96.33214568487728,290.70606314356667L98.77020651887042,291.3347957878833L101.28604183161785,291.9049878503L103.80187714436528,291.72927055675L106.15540050145157,292.4019754863833L108.66785431512271,292.2341324787L111.10253365003959,292.0057091421L113.61836896278702,290.5374232124833L116.05304829770388,292.1326341167833L118.56888361045131,290.97581945955L121.08471892319874,291.60257774266665L123.51939825811559,292.36427868706664L126.03523357086301,292.80077153996666L128.47329440485615,293.17827845005L130.9891297176036,292.9681449519667L133.504965030351,291.83017272723333L135.77733240960674,291.79466981751665L138.28978622327793,291.8083586023L140.72446555819477,290.90166145325L143.2403008709422,291.24133665465L145.67498020585907,290.97567033138336L148.19081551860648,291.77969584875L150.70665083135393,293.08789289873334L153.1413301662708,292.61477045908333L155.65716547901823,292.2182160094333L158.09522631301135,292.27679013695L160.6110616257588,292.81025265056667L163.1268969385062,292.9337804452667L165.39926431776195,292.68521785645L167.9117181314331,292.92651318406666L170.34639746634997,292.45053965365L172.86223277909738,293.0489146641167L175.29691211401425,293.0819818187333L177.81274742676166,293.01001318171666L180.3285827395091,293.1587039623167L182.76326207442597,293.81389405205L185.2790973871734,293.41067751495L187.71715822116653,293.9095246411L190.23299353391397,294.04300345708333L192.74882884666138,294.3627407040167L195.02119622591712,294.35647971513333L197.53365003958828,294.90088991401666L199.96832937450515,295.2127525047333L202.48416468725256,294.83039406861667L204.91884402216945,295.03825181645L207.43467933491686,294.89512817668333L209.9505146476643,295.61050759525L212.38519398258117,295.5074186113667L214.9010292953286,295.6320696459L217.3390901293217,295.34937119218336L219.85492544206915,295.8655928332L222.37076075481656,295.5428616254667L224.72428411190288,296.09309268785L227.23673792557403,295.79100863826665L229.6714172604909,295.69806634735L232.18725257323834,295.9874077559833L234.6219319081552,295.9894547369167L237.13776722090262,295.73444367338334L239.65360253365006,295.4502042505333L242.0882818685669,296.1141014939167L244.6041171813143,296.39043927203335L247.04217801530746,296.49609490815L249.5580133280549,296.89709983535L252.0738486408023,296.13884038428336L254.34621602005808,296.56944249685L256.8586698337292,296.51588942751664L259.2933491686461,296.7988082549333L261.8091844813935,297.0271127319L264.24386381631035,296.892677576L266.75969912905776,296.62318543645L269.27553444180523,296.9176546777L271.71021377672207,296.70644646345L274.2260490894695,297.36157739838336L276.66410992346266,297.2567729927667L279.1799452362101,297.4288256974833L281.69578054895754,297.45995302563335L283.9681479282132,297.1962780591333L286.4806017418844,297.3786403743333L288.91528107680125,297.5687579367L291.43111638954866,297.39088666186666L293.86579572446556,297.40241638633336L296.38163103721297,297.5803700861333L298.89746634996044,297.6019857897333L301.3321456848773,297.05400224318333L303.8479809976247,297.3148850139L306.2860418316178,297.17635394468334L308.8018771443653,296.9917193115833L311.3177124571127,297.09334514451666L313.59007983636843,297.57700101955L316.10253365003956,297.72107248311664L318.53721298495645,297.52125357576665L321.05304829770387,297.06526794353334L323.48772763262076,297.3504869738L326.0035629453682,297.63418601213334L328.5193982581156,297.54290046401667L330.9540775930324,297.68936177741665L333.4699129057799,297.4654136945L335.907973739773,297.9914471242167L338.4238090525204,298.10563006745L340.9396443652679,297.9112416972L343.2931677223542,297.86507258753335L345.80562153602534,297.97648677635L348.24030087094224,298.0700273443L350.75613618368965,298.06133239338334L353.1908155186065,298.2163957817833L355.7066508313539,297.82326252135L358.2224861441013,298.0272758819167L360.6571654790182,297.9599292143L363.1730007917656,298.1324050141333L365.6110616257588,298.35687640951664L368.1268969385062,298.25837122878335L370.6427322512536,298.3018993192333L372.91509963050936,298.28517147158334L375.42755344418055,298.30006134561665L377.8622327790974,298.49722362065L380.3780680918448,297.97125423306665L382.8127474267617,298.2963807282667L385.3285827395091,298.63715530425L387.8444180522565,298.66189210825L390.2790973871734,298.44460908633334L392.7949326999208,299.0596886159L395.232993533914,298.70692036136666L397.7488288466614,298.441366838L400.2646641594088,298.8202957774L402.53703153866456,298.83142466028335L405.0494853523357,298.78809695225L407.4841646872526,298.9006156552333L410,298.48945406546665" data-legend="perl" style="stroke: rgb(188, 189, 34); fill: none;"></path></g></g><g transform="translate(20, 150)"><text transform="rotate(-90)" x="-50" y="0" dy="1em" class="axis-label y-axis-label" style="text-anchor: middle; font-weight: bold;">% of Stack Overflow questions that month</text></g><g class="legend" transform="translate(530, 30)" style="font-size: 12px;"><text class="legend-title" style="font-weight: bold;">Tag</text><g class="legend-items" transform="translate(0,20)"><text y="0em" x="1em">python</text><text y="1em" x="1em">javascript</text><text y="2em" x="1em">java</text><text y="3em" x="1em">c++</text><text y="4em" x="1em">r</text><text y="5em" x="1em">c</text><text y="6em" x="1em">ruby</text><text y="7em" x="1em">perl</text><text y="8em" x="1em">matlab</text><circle cy="-0.25em" cx="0" r="0.4em" style="fill: rgb(31, 119, 180);"></circle><circle cy="0.75em" cx="0" r="0.4em" style="fill: rgb(255, 127, 14);"></circle><circle cy="1.75em" cx="0" r="0.4em" style="fill: rgb(44, 160, 44);"></circle><circle cy="2.75em" cx="0" r="0.4em" style="fill: rgb(148, 103, 189);"></circle><circle cy="3.75em" cx="0" r="0.4em" style="fill: rgb(140, 86, 75);"></circle><circle cy="4.75em" cx="0" r="0.4em" style="fill: rgb(214, 39, 40);"></circle><circle cy="5.75em" cx="0" r="0.4em" style="fill: rgb(127, 127, 127);"></circle><circle cy="6.75em" cx="0" r="0.4em" style="fill: rgb(188, 189, 34);"></circle><circle cy="7.75em" cx="0" r="0.4em" style="fill: rgb(227, 119, 194);"></circle></g><rect class="legend-box"></rect></g></svg>
        